<?xml version="1.0" encoding="utf-8"?>
<!-- Generator: Adobe Illustrator 17.0.0, SVG Export Plug-In . SVG Version: 6.00 Build 0)  -->
<!DOCTYPE svg PUBLIC "-//W3C//DTD SVG 1.1//EN" "http://www.w3.org/Graphics/SVG/1.1/DTD/svg11.dtd">
<svg version="1.1" id="Layer_1" xmlns="http://www.w3.org/2000/svg" xmlns:xlink="http://www.w3.org/1999/xlink" x="0px" y="0px"
	 width="45px" height="45px" viewBox="0 0 45 45" enable-background="new 0 0 45 45" xml:space="preserve">
<g>
	<path fill="#653C97" d="M42.165,2C42.618,2,43,2.382,43,2.835v39.331C43,42.618,42.618,43,42.165,43H2.835
		C2.382,43,2,42.618,2,42.165V2.835C2,2.382,2.382,2,2.835,2H42.165 M42.165,0H2.835C1.276,0,0,1.276,0,2.835v39.331
		C0,43.724,1.276,45,2.835,45h39.331C43.724,45,45,43.724,45,42.165V2.835C45,1.276,43.724,0,42.165,0L42.165,0z"/>
</g>
<g>
	<path fill="#653996" d="M6.266,24.173L5.28,27.158H4.014l3.223-9.489h1.478l3.238,9.489h-1.309L9.63,24.173H6.266z M9.377,23.216
		l-0.929-2.731c-0.211-0.62-0.352-1.183-0.493-1.731H7.927c-0.141,0.563-0.296,1.14-0.479,1.717l-0.929,2.745H9.377z"/>
	<path fill="#653996" d="M28.445,23.047c-0.119-2.234-0.261-4.919-0.238-6.915h-0.071c-0.546,1.877-1.212,3.873-2.02,6.083
		l-2.828,7.77h-1.568l-2.59-7.628c-0.76-2.257-1.402-4.324-1.853-6.225h-0.048c-0.048,1.996-0.166,4.681-0.309,7.081l-0.427,6.868
		H14.52l1.118-16.016h2.637l2.733,7.746c0.665,1.972,1.213,3.731,1.616,5.394h0.071c0.404-1.616,0.975-3.374,1.688-5.394
		l2.852-7.746h2.637l0.998,16.016H28.85L28.445,23.047z"/>
	<path fill="#653996" d="M36.176,27.158l-3.097-9.489h1.324l1.478,4.674c0.408,1.281,0.76,2.435,1.013,3.548h0.028
		c0.268-1.098,0.662-2.295,1.085-3.533l1.605-4.689h1.309l-3.392,9.489H36.176z"/>
</g>
<g>
</g>
<g>
</g>
<g>
</g>
<g>
</g>
<g>
</g>
<g>
</g>
</svg>
