<?xml version="1.0" encoding="utf-8"?>
<!-- Generator: Adobe Illustrator 18.1.0, SVG Export Plug-In . SVG Version: 6.00 Build 0)  -->
<!DOCTYPE svg PUBLIC "-//W3C//DTD SVG 1.1//EN" "http://www.w3.org/Graphics/SVG/1.1/DTD/svg11.dtd">
<svg version="1.1" id="Layer_1" xmlns="http://www.w3.org/2000/svg" xmlns:xlink="http://www.w3.org/1999/xlink" x="0px" y="0px"
	 width="93px" height="70px" viewBox="0 0 93 70" enable-background="new 0 0 93 70" xml:space="preserve">
<g id="New_Symbol">
	<path fill="#1D85AA" d="M92.7,70c0,0-0.1,0-0.2,0v-0.1C92.7,70,92.7,70,92.7,70z"/>
</g>
<g>
	<path fill="#FFFFFF" d="M10,60.1c6.2,5.8,17.3,9.5,29,9.9L0,70V36C0,45.5,3.4,54,10,60.1z"/>
	<path fill="#FFFFFF" d="M0,0h39C14.5,0,0,15.2,0,35V0z"/>
	<path fill="#FFFFFF" d="M93,0v70c-1.5-0.6-11-4.9-11-18V35l0,0c0-8.1-3.1-16.9-9.8-23.6C65.5,4.7,55.3,0,40,0H93z"/>
	<path fill="#FFFFFF" d="M68.1,62.2c8.1,6.8,22.5,7.7,24.4,7.8l0.5,0l-51,0C49,69.8,59.8,68.6,68.1,62.2z"/>
</g>
</svg>
