<?xml version="1.0" encoding="utf-8"?>
<!-- Generator: Adobe Illustrator 17.0.0, SVG Export Plug-In . SVG Version: 6.00 Build 0)  -->
<!DOCTYPE svg PUBLIC "-//W3C//DTD SVG 1.1 Tiny//EN" "http://www.w3.org/Graphics/SVG/1.1/DTD/svg11-tiny.dtd">
<svg version="1.1" baseProfile="tiny" id="Layer_1" xmlns="http://www.w3.org/2000/svg" xmlns:xlink="http://www.w3.org/1999/xlink"
	 x="0px" y="0px" width="59.91px" height="39.962px" viewBox="0 0 59.91 39.962" overflow="scroll" xml:space="preserve">
<path d="M46.14,3c2.132,3.581,5.694,7.406,10.452,9.484c-4.757,2.073-8.319,5.896-10.452,9.478H6.218
	c2.203-1.982,5.095-4.101,9.053-6.146l1.623-0.839v-1.827V11.82V9.995l-1.62-0.839C11.317,7.107,8.423,4.985,6.217,3H46.14
	 M47.928,0H0v0.836C2.501,3.823,6.495,7.988,13.894,11.82v1.331C6.495,16.974,2.501,21.139,0,24.135v0.828h47.928
	c2.168-4.489,6.571-8.987,11.982-10.48v-3.994C54.499,8.987,50.096,4.489,47.928,0L47.928,0z"/>
</svg>
