<?xml version="1.0" encoding="utf-8"?>
<!-- Generator: Adobe Illustrator 17.0.0, SVG Export Plug-In . SVG Version: 6.00 Build 0)  -->
<!DOCTYPE svg PUBLIC "-//W3C//DTD SVG 1.1//EN" "http://www.w3.org/Graphics/SVG/1.1/DTD/svg11.dtd">
<svg version="1.1" id="Layer_1" xmlns="http://www.w3.org/2000/svg" xmlns:xlink="http://www.w3.org/1999/xlink" x="0px" y="0px"
	 width="77.719px" height="77.765px" viewBox="0 0 77.719 77.765" enable-background="new 0 0 77.719 77.765" xml:space="preserve">
<linearGradient id="SVGID_1_" gradientUnits="userSpaceOnUse" x1="522.2931" y1="-124.939" x2="522.2931" y2="-47.2616">
	<stop  offset="0" style="stop-color:#E42183"/>
	<stop  offset="1" style="stop-color:#E64272"/>
</linearGradient>
<path fill="url(#SVGID_1_)" d="M520.699-125.21c37.604,0,40.454,3.417,40.454,40.454s-1.234,37.265-37.265,37.265
	c-36.031,0-40.454-0.288-40.454-40.454S483.095-125.21,520.699-125.21z"/>
<path fill="none" stroke="#FFFFFF" stroke-width="3.7465" stroke-linecap="round" stroke-linejoin="round" stroke-miterlimit="10" d="
	M516.967-87.562c-22.4-12.752-17.944,15.34,11.991,0.819c13.319-6.461,6.578,15.713,5.811,23.864l-11.067-45.448
	c0,0-13.323,39.595-13.323,45.448"/>
<linearGradient id="SVGID_2_" gradientUnits="userSpaceOnUse" x1="522.2931" y1="-125.1099" x2="522.2931" y2="-47.4325">
	<stop  offset="0" style="stop-color:#E42183"/>
	<stop  offset="1" style="stop-color:#E64272"/>
</linearGradient>
<path fill="url(#SVGID_2_)" d="M520.699-125.381c37.604,0,40.454,3.417,40.454,40.454s-1.234,37.265-37.265,37.265
	c-36.031,0-40.454-0.288-40.454-40.454S483.095-125.381,520.699-125.381z"/>
<path fill="none" stroke="#FFFFFF" stroke-width="4.5952" stroke-linecap="round" stroke-linejoin="round" stroke-miterlimit="10" d="
	M516.279-88.177c-25.871-14.728-26.323,20.908,14.707,1.005c19.739-9.575,8.428,15.436,7.128,29.271l-13.575-55.743
	c0,0-16.341,48.565-16.341,55.743"/>
<linearGradient id="SVGID_3_" gradientUnits="userSpaceOnUse" x1="522.2931" y1="0.4882" x2="522.2931" y2="78.1656">
	<stop  offset="0" style="stop-color:#E42183"/>
	<stop  offset="1" style="stop-color:#E64272"/>
</linearGradient>
<path fill="url(#SVGID_3_)" d="M520.699,0.217c37.604,0,40.454,3.417,40.454,40.454s-1.234,37.265-37.265,37.265
	c-36.031,0-40.454-0.288-40.454-40.454S483.095,0.217,520.699,0.217z"/>
<path fill="none" stroke="#FFFFFF" stroke-width="3.7465" stroke-linecap="round" stroke-linejoin="round" stroke-miterlimit="10" d="
	M516.967,37.865c-22.4-12.752-17.944,15.34,11.991,0.819c13.319-6.461,6.578,15.713,5.811,23.864l-11.067-45.448
	c0,0-13.323,39.595-13.323,45.448"/>
<linearGradient id="SVGID_4_" gradientUnits="userSpaceOnUse" x1="522.2931" y1="0.3174" x2="522.2931" y2="77.9948">
	<stop  offset="0" style="stop-color:#E42183"/>
	<stop  offset="1" style="stop-color:#E64272"/>
</linearGradient>
<path fill="url(#SVGID_4_)" d="M520.699,0.046c37.604,0,40.454,3.417,40.454,40.454s-1.234,37.265-37.265,37.265
	c-36.031,0-40.454-0.288-40.454-40.454S483.095,0.046,520.699,0.046z"/>
<g>
	<path fill="#FFFFFF" d="M503.645,27.023l-0.79,0.25c-0.163,0.044-0.198,0.08-0.258,0.113c-0.059,0.033-0.12,0.064-0.184,0.091
		c-0.115,0.03-0.287,0.15-0.454,0.264c-0.167,0.11-0.343,0.206-0.495,0.358c-0.668,0.502-1.219,1.238-1.705,2.005
		c-0.969,1.562-1.504,3.457-1.532,5.304c0.015,0.921,0.15,1.828,0.434,2.681c0.342,0.818,0.744,1.629,1.379,2.269
		c1.181,1.359,3.014,2.174,4.961,2.599c1.966,0.404,4.078,0.466,6.186,0.241c1.056-0.046,2.11-0.287,3.168-0.422
		c1.051-0.221,2.104-0.446,3.15-0.712c1.038-0.306,2.089-0.564,3.119-0.908c1.028-0.354,2.065-0.677,3.086-1.056l3.053-1.178
		l3.003-1.318c2.004-0.895,4.054-1.833,6.153-2.626c2.102-0.798,4.249-1.51,6.564-1.911c1.158-0.186,2.383-0.292,3.713,0
		c0.66,0.163,1.363,0.468,1.936,0.999c0.577,0.526,0.95,1.238,1.133,1.912c0.358,1.369,0.219,2.607,0.043,3.776
		c-0.192,1.172-0.497,2.283-0.835,3.37c-1.392,4.328-3.213,8.373-4.794,12.478c-0.805,2.041-1.55,4.096-2.17,6.144
		c-0.606,2.036-1.088,4.131-1.107,5.986l-0.001,0.006l-0.008,0.065c-0.155,1.259-1.301,2.155-2.56,2
		c-0.974-0.12-1.731-0.837-1.952-1.737l-13.575-55.743l4.41,0.189c-3.062,9.169-6.059,18.382-8.925,27.613
		c-1.435,4.616-2.835,9.241-4.147,13.873c-0.324,1.158-0.666,2.316-0.965,3.474c-0.3,1.157-0.634,2.319-0.907,3.471
		c-0.258,1.145-0.596,2.325-0.79,3.442l-0.333,1.692c-0.042,0.484-0.094,0.964-0.155,1.446l-0.065,0.509
		c-0.159,1.249-1.3,2.133-2.549,1.975c-1.226-0.156-2.1-1.262-1.982-2.483l0.212-2.17l0.366-1.875
		c0.226-1.271,0.56-2.424,0.835-3.642c0.285-1.205,0.621-2.373,0.93-3.561c0.307-1.188,0.651-2.354,0.98-3.529
		c1.329-4.692,2.738-9.344,4.18-13.983c2.881-9.281,5.881-18.501,8.959-27.717c0.402-1.203,1.702-1.852,2.905-1.451
		c0.771,0.258,1.315,0.885,1.5,1.619l0.005,0.02l13.574,55.743l-4.52,0.329l0.001-0.008c0.444-2.546,1.294-4.704,2.167-6.82
		c0.882-2.106,1.858-4.123,2.818-6.13c0.977-1.998,1.951-3.98,2.876-5.969c0.931-1.984,1.825-3.979,2.529-6.002
		c0.353-1.009,0.666-2.025,0.865-3.027c0.202-0.991,0.295-2.015,0.08-2.793c-0.208-0.778-0.649-1.183-1.48-1.41
		c-0.832-0.198-1.855-0.162-2.871-0.001c-2.049,0.32-4.109,1.042-6.127,1.818c-2.028,0.784-3.991,1.699-6.013,2.619l-3.052,1.37
		l-3.102,1.275c-1.04,0.412-2.105,0.77-3.158,1.158c-1.057,0.377-2.147,0.673-3.22,1.013c-1.086,0.305-2.192,0.557-3.293,0.828
		c-1.125,0.189-2.226,0.478-3.379,0.575c-2.27,0.319-4.632,0.359-7.007-0.039c-2.343-0.411-4.843-1.295-6.706-3.193
		c-0.966-0.899-1.657-2.058-2.206-3.247c-0.509-1.213-0.792-2.494-0.897-3.778c-0.144-2.566,0.389-5.115,1.58-7.408
		c0.604-1.143,1.343-2.242,2.337-3.204c0.226-0.254,0.507-0.472,0.781-0.694c0.272-0.221,0.535-0.443,0.92-0.655l0.541-0.31
		c0.182-0.101,0.383-0.21,0.487-0.246l0.764-0.323c1.17-0.494,2.52,0.054,3.014,1.224c0.494,1.17-0.054,2.52-1.224,3.014
		c-0.065,0.027-0.131,0.052-0.197,0.073L503.645,27.023z"/>
</g>
<linearGradient id="SVGID_5_" gradientUnits="userSpaceOnUse" x1="143.0215" y1="0.4882" x2="143.0215" y2="78.1656">
	<stop  offset="0" style="stop-color:#E42183"/>
	<stop  offset="1" style="stop-color:#E64272"/>
</linearGradient>
<path fill="url(#SVGID_5_)" d="M141.427,0.217c37.604,0,40.454,3.417,40.454,40.454s-1.234,37.265-37.265,37.265
	s-40.454-0.288-40.454-40.454S103.824,0.217,141.427,0.217z"/>
<path fill="none" stroke="#FFFFFF" stroke-width="3.7465" stroke-linecap="round" stroke-linejoin="round" stroke-miterlimit="10" d="
	M137.695,37.865c-22.4-12.752-17.944,15.34,11.991,0.819c13.319-6.461,6.578,15.713,5.811,23.864L144.43,17.101
	c0,0-13.323,39.595-13.323,45.448"/>
<linearGradient id="SVGID_6_" gradientUnits="userSpaceOnUse" x1="143.0215" y1="0.3174" x2="143.0215" y2="77.9948">
	<stop  offset="0" style="stop-color:#E42183"/>
	<stop  offset="1" style="stop-color:#E64272"/>
</linearGradient>
<path fill="url(#SVGID_6_)" d="M141.427,0.046c37.604,0,40.454,3.417,40.454,40.454s-1.234,37.265-37.265,37.265
	s-40.454-0.288-40.454-40.454S103.824,0.046,141.427,0.046z"/>
<g>
	<path fill="#FFFFFF" d="M124.373,27.023l-0.79,0.25c-0.163,0.044-0.198,0.08-0.258,0.113c-0.059,0.033-0.12,0.064-0.184,0.091
		c-0.115,0.03-0.287,0.15-0.454,0.264c-0.167,0.11-0.343,0.206-0.495,0.358c-0.668,0.502-1.219,1.238-1.705,2.005
		c-0.969,1.562-1.504,3.457-1.532,5.304c0.015,0.921,0.15,1.828,0.434,2.681c0.342,0.818,0.744,1.629,1.379,2.269
		c1.181,1.359,3.014,2.174,4.961,2.599c1.966,0.404,4.078,0.466,6.186,0.241c1.056-0.046,2.11-0.287,3.168-0.422
		c1.051-0.221,2.104-0.446,3.15-0.712c1.038-0.306,2.089-0.564,3.119-0.908c1.028-0.354,2.065-0.677,3.086-1.056l3.053-1.178
		l3.003-1.318c2.004-0.895,4.054-1.833,6.153-2.626c2.102-0.798,4.249-1.51,6.564-1.911c1.158-0.186,2.383-0.292,3.713,0
		c0.66,0.163,1.363,0.468,1.936,0.999c0.577,0.526,0.95,1.238,1.133,1.912c0.358,1.369,0.219,2.607,0.043,3.776
		c-0.192,1.172-0.497,2.283-0.835,3.37c-1.392,4.328-3.213,8.373-4.794,12.478c-0.805,2.041-1.55,4.096-2.17,6.144
		c-0.606,2.036-1.088,4.131-1.107,5.986l-0.001,0.006l-0.008,0.065c-0.155,1.259-1.301,2.155-2.56,2
		c-0.974-0.12-1.731-0.837-1.952-1.737l-13.575-55.743l4.41,0.189c-3.062,9.169-6.059,18.382-8.925,27.613
		c-1.435,4.616-2.835,9.241-4.147,13.873c-0.324,1.158-0.666,2.316-0.965,3.474c-0.3,1.157-0.634,2.319-0.907,3.471
		c-0.258,1.145-0.596,2.325-0.79,3.442l-0.333,1.692c-0.042,0.484-0.094,0.964-0.155,1.446l-0.065,0.509
		c-0.159,1.249-1.3,2.133-2.549,1.975c-1.226-0.156-2.1-1.262-1.982-2.483l0.212-2.17l0.366-1.875
		c0.226-1.271,0.56-2.424,0.835-3.642c0.285-1.205,0.621-2.373,0.93-3.561c0.307-1.188,0.651-2.354,0.98-3.529
		c1.33-4.692,2.738-9.344,4.18-13.983c2.881-9.281,5.881-18.501,8.959-27.717c0.402-1.203,1.702-1.852,2.905-1.451
		c0.771,0.258,1.315,0.885,1.5,1.619l0.005,0.02l13.575,55.743l-4.52,0.329l0.001-0.008c0.444-2.546,1.294-4.704,2.167-6.82
		c0.882-2.106,1.858-4.123,2.818-6.13c0.977-1.998,1.951-3.98,2.876-5.969c0.931-1.984,1.825-3.979,2.529-6.002
		c0.353-1.009,0.666-2.025,0.865-3.027c0.202-0.991,0.295-2.015,0.08-2.793c-0.208-0.778-0.649-1.183-1.48-1.41
		c-0.832-0.198-1.855-0.162-2.871-0.001c-2.049,0.32-4.109,1.042-6.127,1.818c-2.028,0.784-3.991,1.699-6.013,2.619l-3.052,1.37
		l-3.102,1.275c-1.04,0.412-2.105,0.77-3.158,1.158c-1.057,0.377-2.147,0.673-3.22,1.013c-1.086,0.305-2.192,0.557-3.293,0.828
		c-1.125,0.189-2.226,0.478-3.379,0.575c-2.27,0.319-4.632,0.359-7.007-0.039c-2.343-0.411-4.843-1.295-6.706-3.193
		c-0.966-0.899-1.657-2.058-2.206-3.247c-0.509-1.213-0.792-2.494-0.897-3.778c-0.144-2.566,0.389-5.115,1.58-7.408
		c0.604-1.143,1.343-2.242,2.337-3.204c0.226-0.254,0.507-0.472,0.781-0.694c0.272-0.221,0.535-0.443,0.92-0.655l0.541-0.31
		c0.182-0.101,0.383-0.21,0.487-0.246l0.764-0.323c1.17-0.494,2.52,0.054,3.014,1.224c0.494,1.17-0.054,2.52-1.224,3.014
		c-0.065,0.027-0.131,0.052-0.197,0.073L124.373,27.023z"/>
</g>
<linearGradient id="SVGID_7_" gradientUnits="userSpaceOnUse" x1="38.86" y1="0.4846" x2="38.86" y2="78.1633">
	<stop  offset="0" style="stop-color:#E42183"/>
	<stop  offset="1" style="stop-color:#E64272"/>
</linearGradient>
<path fill="url(#SVGID_7_)" d="M40.775,20.113c-2.2,6.66-4.34,13.33-6.42,20.01c-0.21,0.67-0.42,1.34-0.62,2.02
	c0.11-0.02,0.23-0.05,0.34-0.08c1.04-0.3,2.09-0.56,3.12-0.91c1.02-0.35,2.06-0.67,3.08-1.05l3.06-1.18l1.82-0.8L40.775,20.113z
	 M40.775,20.113c-2.2,6.66-4.34,13.33-6.42,20.01c-0.21,0.67-0.42,1.34-0.62,2.02c0.11-0.02,0.23-0.05,0.34-0.08
	c1.04-0.3,2.09-0.56,3.12-0.91c1.02-0.35,2.06-0.67,3.08-1.05l3.06-1.18l1.82-0.8L40.775,20.113z M40.775,20.113
	c-2.2,6.66-4.34,13.33-6.42,20.01c-0.21,0.67-0.42,1.34-0.62,2.02c0.11-0.02,0.23-0.05,0.34-0.08c1.04-0.3,2.09-0.56,3.12-0.91
	c1.02-0.35,2.06-0.67,3.08-1.05l3.06-1.18l1.82-0.8L40.775,20.113z M40.775,20.113c-2.2,6.66-4.34,13.33-6.42,20.01
	c-0.21,0.67-0.42,1.34-0.62,2.02c0.11-0.02,0.23-0.05,0.34-0.08c1.04-0.3,2.09-0.56,3.12-0.91c1.02-0.35,2.06-0.67,3.08-1.05
	l3.06-1.18l1.82-0.8L40.775,20.113z M40.775,20.113c-2.2,6.66-4.34,13.33-6.42,20.01c-0.21,0.67-0.42,1.34-0.62,2.02
	c0.11-0.02,0.23-0.05,0.34-0.08c1.04-0.3,2.09-0.56,3.12-0.91c1.02-0.35,2.06-0.67,3.08-1.05l3.06-1.18l1.82-0.8L40.775,20.113z
	 M63.725,36.563c-0.2-0.78-0.65-1.19-1.48-1.41c-0.83-0.2-1.85-0.16-2.87,0c-2.05,0.32-4.11,1.04-6.12,1.81
	c-0.7,0.27-1.4,0.56-2.09,0.86c-0.01,0-0.01,0-0.01,0c-0.4,0.18-0.81,0.35-1.21,0.54l3.17,13.02l1.94,7.97
	c0.74-1.7,1.53-3.35,2.32-5c0.98-2,1.96-3.98,2.88-5.97c0.93-1.98,1.82-3.98,2.53-6c0.35-1.01,0.67-2.03,0.86-3.03
	C63.855,38.363,63.945,37.343,63.725,36.563z M34.355,40.123c-0.21,0.67-0.42,1.34-0.62,2.02c0.11-0.02,0.23-0.05,0.34-0.08
	c1.04-0.3,2.09-0.56,3.12-0.91c1.02-0.35,2.06-0.67,3.08-1.05l3.06-1.18l1.82-0.8l-4.38-18.01
	C38.575,26.773,36.435,33.443,34.355,40.123z M55.055,59.353c0.74-1.7,1.53-3.35,2.32-5c0.98-2,1.96-3.98,2.88-5.97
	c0.93-1.98,1.82-3.98,2.53-6c0.35-1.01,0.67-2.03,0.86-3.03c0.21-0.99,0.3-2.01,0.08-2.79c-0.2-0.78-0.65-1.19-1.48-1.41
	c-0.83-0.2-1.85-0.16-2.87,0c-2.05,0.32-4.11,1.04-6.12,1.81c-0.7,0.27-1.4,0.56-2.09,0.86c-0.01,0-0.01,0-0.01,0
	c-0.4,0.18-0.81,0.35-1.21,0.54l3.17,13.02L55.055,59.353z M37.195,41.153c1.02-0.35,2.06-0.67,3.08-1.05l3.06-1.18l1.82-0.8
	l-4.38-18.01c-2.2,6.66-4.34,13.33-6.42,20.01c-0.21,0.67-0.42,1.34-0.62,2.02c0.11-0.02,0.23-0.05,0.34-0.08
	C35.115,41.763,36.165,41.503,37.195,41.153z M77.575,29.683c-0.03-0.84-0.06-1.65-0.1-2.44c-0.03-0.8-0.08-1.58-0.13-2.33
	c-0.05-0.7-0.1-1.38-0.16-2.03c-0.02-0.34-0.05-0.67-0.09-1c-0.03-0.31-0.06-0.61-0.1-0.91c-0.1-0.88-0.21-1.72-0.34-2.52
	c0.01-0.01,0-0.01,0-0.02c-0.04-0.26-0.08-0.51-0.13-0.76c-2.79-15.62-11.66-17.46-39.26-17.46c-27.04,0-34.45-1.5-36.51,12.6
	c-0.06,0.39-0.1,0.78-0.15,1.18c-0.03,0.22-0.05,0.45-0.07,0.68c-0.07,0.65-0.13,1.34-0.18,2.06c-0.02,0.25-0.03,0.5-0.05,0.75
	c-0.07,1.08-0.12,2.22-0.16,3.44c-0.15,4.45-0.14,9.85-0.14,16.39c0,3.14,0.03,6.03,0.09,8.7c0.05,1.98,0.12,3.84,0.22,5.58
	c0.05,0.85,0.1,1.68,0.16,2.48c0.04,0.42,0.07,0.84,0.1,1.25c0.03,0.35,0.06,0.69,0.1,1.03c0.07,0.67,0.14,1.31,0.22,1.94
	c0.04,0.3,0.08,0.61,0.12,0.9c0.08,0.58,0.18,1.15,0.27,1.69c0.09,0.52,0.19,1.03,0.3,1.52c0,0.01,0,0.01,0,0.02
	c0.05,0.24,0.11,0.48,0.16,0.71c0.11,0.45,0.22,0.89,0.34,1.32c0,0,0,0,0,0.01c3.67,13.33,13.47,13.47,38.37,13.47
	c25.25,0,33.39-0.12,36.01-12.89c-0.01-0.01,0-0.01,0-0.02c0.08-0.41,0.16-0.83,0.24-1.26c0.04-0.22,0.07-0.45,0.11-0.68
	c0,0,0-0.01,0-0.02c0.07-0.47,0.14-0.95,0.2-1.45c-0.01-0.01-0.01-0.02,0-0.04c0.06-0.53,0.12-1.09,0.18-1.66
	c0.08-0.88,0.15-1.8,0.21-2.77c0.08-1.38,0.14-2.84,0.19-4.41c0.1-3.55,0.12-7.6,0.12-12.23
	C77.715,36.523,77.685,32.923,77.575,29.683z M12.795,28.143c0.61-1.15,1.35-2.25,2.34-3.21c0.23-0.25,0.51-0.47,0.78-0.69
	c0.27-0.22,0.54-0.44,0.92-0.66l0.54-0.31c0.18-0.1,0.39-0.21,0.49-0.24l0.76-0.32c1.17-0.5,2.52,0.05,3.02,1.22
	c0.49,1.17-0.06,2.52-1.23,3.01c-0.06,0.03-0.13,0.06-0.19,0.08h-0.01l-0.79,0.25c-0.17,0.04-0.2,0.08-0.26,0.11
	c-0.06,0.04-0.12,0.07-0.19,0.09c-0.11,0.03-0.28,0.15-0.45,0.27c-0.17,0.11-0.34,0.2-0.49,0.36c-0.67,0.5-1.22,1.23-1.71,2
	c-0.97,1.56-1.5,3.46-1.53,5.3c0.01,0.93,0.15,1.83,0.43,2.69c0.34,0.81,0.75,1.63,1.38,2.27c1.18,1.35,3.02,2.17,4.96,2.59
	c1.97,0.41,4.08,0.47,6.19,0.25c0.29-0.01,0.58-0.04,0.87-0.08c0.02-0.06,0.04-0.12,0.06-0.18c0.42-1.39,0.85-2.79,1.29-4.18
	c0.24-0.79,0.49-1.58,0.74-2.36c2.53-8.1,5.15-16.15,7.83-24.19c0.12-0.39,0.25-0.77,0.38-1.16c0.41-1.21,1.71-1.86,2.91-1.45
	c0.77,0.25,1.31,0.88,1.5,1.62v0.02l6.09,24.99c1.01-0.44,2.03-0.86,3.06-1.25c2.1-0.8,4.25-1.51,6.57-1.92
	c1.15-0.18,2.38-0.29,3.71,0.01c0.66,0.16,1.36,0.46,1.93,0.99c0.58,0.53,0.95,1.24,1.14,1.92c0.35,1.37,0.22,2.6,0.04,3.77
	c-0.19,1.18-0.5,2.29-0.83,3.37c-1.4,4.33-3.22,8.38-4.8,12.48c-0.8,2.04-1.55,4.1-2.17,6.15c-0.53,1.76-0.96,3.58-1.08,5.24
	c-0.02,0.25-0.03,0.5-0.03,0.74v0.07c-0.16,1.26-1.31,2.16-2.56,2c-0.98-0.12-1.74-0.83-1.96-1.73l-0.18-0.73l-6.58-27.06l-1.5,0.67
	l-3.1,1.28c-1.04,0.41-2.11,0.77-3.16,1.16c-1.05,0.37-2.15,0.67-3.22,1.01c-0.59,0.16-1.19,0.32-1.8,0.47
	c-0.93,3.04-1.83,6.08-2.69,9.13c-0.33,1.16-0.67,2.31-0.97,3.47c-0.3,1.16-0.63,2.32-0.9,3.47c-0.26,1.15-0.6,2.33-0.79,3.44
	l-0.34,1.7c-0.04,0.48-0.09,0.96-0.15,1.44l-0.07,0.51c-0.16,1.25-1.3,2.13-2.55,1.98c-1.22-0.16-2.1-1.27-1.98-2.49l0.21-2.17
	l0.37-1.87c0.23-1.27,0.56-2.43,0.84-3.64c0.28-1.21,0.62-2.38,0.93-3.56c0.3-1.19,0.65-2.36,0.98-3.53
	c0.65-2.32,1.32-4.62,2.01-6.92c-2.2,0.29-4.48,0.32-6.78-0.07c-2.34-0.41-4.84-1.29-6.7-3.19c-0.97-0.9-1.66-2.06-2.21-3.25
	c-0.51-1.21-0.79-2.49-0.9-3.78C11.075,32.983,11.605,30.433,12.795,28.143z M40.775,20.113c-2.2,6.66-4.34,13.33-6.42,20.01
	c-0.21,0.67-0.42,1.34-0.62,2.02c0.11-0.02,0.23-0.05,0.34-0.08c1.04-0.3,2.09-0.56,3.12-0.91c1.02-0.35,2.06-0.67,3.08-1.05
	l3.06-1.18l1.82-0.8L40.775,20.113z M63.725,36.563c-0.2-0.78-0.65-1.19-1.48-1.41c-0.83-0.2-1.85-0.16-2.87,0
	c-2.05,0.32-4.11,1.04-6.12,1.81c-0.7,0.27-1.4,0.56-2.09,0.86c-0.01,0-0.01,0-0.01,0c-0.4,0.18-0.81,0.35-1.21,0.54l3.17,13.02
	l1.94,7.97c0.74-1.7,1.53-3.35,2.32-5c0.98-2,1.96-3.98,2.88-5.97c0.93-1.98,1.82-3.98,2.53-6c0.35-1.01,0.67-2.03,0.86-3.03
	C63.855,38.363,63.945,37.343,63.725,36.563z M40.775,20.113c-2.2,6.66-4.34,13.33-6.42,20.01c-0.21,0.67-0.42,1.34-0.62,2.02
	c0.11-0.02,0.23-0.05,0.34-0.08c1.04-0.3,2.09-0.56,3.12-0.91c1.02-0.35,2.06-0.67,3.08-1.05l3.06-1.18l1.82-0.8L40.775,20.113z
	 M40.775,20.113c-2.2,6.66-4.34,13.33-6.42,20.01c-0.21,0.67-0.42,1.34-0.62,2.02c0.11-0.02,0.23-0.05,0.34-0.08
	c1.04-0.3,2.09-0.56,3.12-0.91c1.02-0.35,2.06-0.67,3.08-1.05l3.06-1.18l1.82-0.8L40.775,20.113z M40.775,20.113
	c-2.2,6.66-4.34,13.33-6.42,20.01c-0.21,0.67-0.42,1.34-0.62,2.02c0.11-0.02,0.23-0.05,0.34-0.08c1.04-0.3,2.09-0.56,3.12-0.91
	c1.02-0.35,2.06-0.67,3.08-1.05l3.06-1.18l1.82-0.8L40.775,20.113z M40.775,20.113c-2.2,6.66-4.34,13.33-6.42,20.01
	c-0.21,0.67-0.42,1.34-0.62,2.02c0.11-0.02,0.23-0.05,0.34-0.08c1.04-0.3,2.09-0.56,3.12-0.91c1.02-0.35,2.06-0.67,3.08-1.05
	l3.06-1.18l1.82-0.8L40.775,20.113z M40.775,20.113c-2.2,6.66-4.34,13.33-6.42,20.01c-0.21,0.67-0.42,1.34-0.62,2.02
	c0.11-0.02,0.23-0.05,0.34-0.08c1.04-0.3,2.09-0.56,3.12-0.91c1.02-0.35,2.06-0.67,3.08-1.05l3.06-1.18l1.82-0.8L40.775,20.113z"/>
<path fill="none" stroke="#FFFFFF" stroke-width="3.7465" stroke-linecap="round" stroke-linejoin="round" stroke-miterlimit="10" d="
	M51.165,37.823c-0.01,0-0.01,0-0.01,0"/>
<linearGradient id="SVGID_8_" gradientUnits="userSpaceOnUse" x1="38.86" y1="0.3147" x2="38.86" y2="77.9932">
	<stop  offset="0" style="stop-color:#E42183"/>
	<stop  offset="1" style="stop-color:#E64272"/>
</linearGradient>
<path fill="url(#SVGID_8_)" d="M40.775,20.113c-2.2,6.66-4.34,13.33-6.42,20.01c-0.21,0.67-0.42,1.34-0.62,2.02
	c0.11-0.02,0.23-0.05,0.34-0.08c1.04-0.3,2.09-0.56,3.12-0.91c1.02-0.35,2.06-0.67,3.08-1.05l3.06-1.18l1.82-0.8L40.775,20.113z
	 M40.775,20.113c-2.2,6.66-4.34,13.33-6.42,20.01c-0.21,0.67-0.42,1.34-0.62,2.02c0.11-0.02,0.23-0.05,0.34-0.08
	c1.04-0.3,2.09-0.56,3.12-0.91c1.02-0.35,2.06-0.67,3.08-1.05l3.06-1.18l1.82-0.8L40.775,20.113z M40.775,20.113
	c-2.2,6.66-4.34,13.33-6.42,20.01c-0.21,0.67-0.42,1.34-0.62,2.02c0.11-0.02,0.23-0.05,0.34-0.08c1.04-0.3,2.09-0.56,3.12-0.91
	c1.02-0.35,2.06-0.67,3.08-1.05l3.06-1.18l1.82-0.8L40.775,20.113z M40.775,20.113c-2.2,6.66-4.34,13.33-6.42,20.01
	c-0.21,0.67-0.42,1.34-0.62,2.02c0.11-0.02,0.23-0.05,0.34-0.08c1.04-0.3,2.09-0.56,3.12-0.91c1.02-0.35,2.06-0.67,3.08-1.05
	l3.06-1.18l1.82-0.8L40.775,20.113z M40.775,20.113c-2.2,6.66-4.34,13.33-6.42,20.01c-0.21,0.67-0.42,1.34-0.62,2.02
	c0.11-0.02,0.23-0.05,0.34-0.08c1.04-0.3,2.09-0.56,3.12-0.91c1.02-0.35,2.06-0.67,3.08-1.05l3.06-1.18l1.82-0.8L40.775,20.113z
	 M63.725,36.563c-0.2-0.78-0.65-1.19-1.48-1.41c-0.83-0.2-1.85-0.16-2.87,0c-2.05,0.32-4.11,1.04-6.12,1.81
	c-0.7,0.27-1.4,0.56-2.09,0.86c-0.01,0-0.01,0-0.01,0c-0.4,0.18-0.81,0.35-1.21,0.54l3.17,13.02l1.94,7.97
	c0.74-1.7,1.53-3.35,2.32-5c0.98-2,1.96-3.98,2.88-5.97c0.93-1.98,1.82-3.98,2.53-6c0.35-1.01,0.67-2.03,0.86-3.03
	C63.855,38.363,63.945,37.343,63.725,36.563z M34.355,40.123c-0.21,0.67-0.42,1.34-0.62,2.02c0.11-0.02,0.23-0.05,0.34-0.08
	c1.04-0.3,2.09-0.56,3.12-0.91c1.02-0.35,2.06-0.67,3.08-1.05l3.06-1.18l1.82-0.8l-4.38-18.01
	C38.575,26.773,36.435,33.443,34.355,40.123z M62.245,35.153c-0.83-0.2-1.85-0.16-2.87,0c-2.05,0.32-4.11,1.04-6.12,1.81
	c-0.7,0.27-1.4,0.56-2.09,0.86c-0.01,0-0.01,0-0.01,0c-0.4,0.18-0.81,0.35-1.21,0.54l3.17,13.02l1.94,7.97
	c0.74-1.7,1.53-3.35,2.32-5c0.98-2,1.96-3.98,2.88-5.97c0.93-1.98,1.82-3.98,2.53-6c0.35-1.01,0.67-2.03,0.86-3.03
	c0.21-0.99,0.3-2.01,0.08-2.79C63.525,35.783,63.075,35.373,62.245,35.153z M34.355,40.123c-0.21,0.67-0.42,1.34-0.62,2.02
	c0.11-0.02,0.23-0.05,0.34-0.08c1.04-0.3,2.09-0.56,3.12-0.91c1.02-0.35,2.06-0.67,3.08-1.05l3.06-1.18l1.82-0.8l-4.38-18.01
	C38.575,26.773,36.435,33.443,34.355,40.123z M77.575,29.683c-0.03-0.84-0.06-1.65-0.1-2.44c-0.03-0.8-0.08-1.58-0.13-2.33
	c-0.05-0.7-0.1-1.38-0.16-2.03c-0.02-0.34-0.05-0.67-0.09-1c-0.03-0.31-0.06-0.61-0.1-0.91c-0.1-0.88-0.21-1.72-0.34-2.52
	c0.01-0.01,0-0.01,0-0.02c-0.04-0.26-0.08-0.51-0.13-0.76c-2.72-15.78-11.56-17.63-39.26-17.63c-27.16,0-34.53-1.51-36.51,12.77
	c-0.06,0.39-0.1,0.78-0.15,1.18c-0.03,0.22-0.05,0.45-0.07,0.68c-0.07,0.65-0.13,1.34-0.18,2.06c-0.02,0.25-0.03,0.5-0.05,0.75
	c-0.07,1.08-0.12,2.22-0.16,3.44c-0.15,4.45-0.14,9.85-0.14,16.39c0,3.14,0.03,6.03,0.09,8.7c0.05,1.98,0.12,3.84,0.22,5.58
	c0.05,0.85,0.1,1.68,0.16,2.48c0.04,0.42,0.07,0.84,0.1,1.25c0.03,0.35,0.06,0.69,0.1,1.03c0.07,0.67,0.14,1.31,0.22,1.94
	c0.04,0.3,0.08,0.61,0.12,0.9c0.08,0.58,0.18,1.15,0.27,1.69c0.09,0.52,0.19,1.03,0.3,1.52c0,0.01,0,0.01,0,0.02
	c0.05,0.24,0.11,0.48,0.16,0.71c0.11,0.45,0.22,0.89,0.34,1.32c0,0,0,0,0,0.01c3.74,13.16,13.58,13.3,38.37,13.3
	c25.11,0,33.31-0.12,36.01-12.72c-0.01-0.01,0-0.01,0-0.02c0.08-0.41,0.16-0.83,0.24-1.26c0.04-0.22,0.07-0.45,0.11-0.68
	c0,0,0-0.01,0-0.02c0.07-0.47,0.14-0.95,0.2-1.45c-0.01-0.01-0.01-0.02,0-0.04c0.06-0.53,0.12-1.09,0.18-1.66
	c0.08-0.88,0.15-1.8,0.21-2.77c0.08-1.38,0.14-2.84,0.19-4.41c0.1-3.55,0.12-7.6,0.12-12.23
	C77.715,36.523,77.685,32.923,77.575,29.683z M65.875,39.753c-0.19,1.18-0.5,2.29-0.83,3.37c-1.4,4.33-3.22,8.38-4.8,12.48
	c-0.8,2.04-1.55,4.1-2.17,6.15c-0.53,1.76-0.96,3.58-1.08,5.24c-0.02,0.25-0.03,0.5-0.03,0.74v0.07c-0.16,1.26-1.31,2.16-2.56,2
	c-0.98-0.12-1.74-0.83-1.96-1.73l-0.18-0.73l-6.58-27.06l-1.5,0.67l-3.1,1.28c-1.04,0.41-2.11,0.77-3.16,1.16
	c-1.05,0.37-2.15,0.67-3.22,1.01c-0.59,0.16-1.19,0.32-1.8,0.47c-0.93,3.04-1.83,6.08-2.69,9.13c-0.33,1.16-0.67,2.31-0.97,3.47
	c-0.3,1.16-0.63,2.32-0.9,3.47c-0.26,1.15-0.6,2.33-0.79,3.44l-0.34,1.7c-0.04,0.48-0.09,0.96-0.15,1.44l-0.07,0.51
	c-0.16,1.25-1.3,2.13-2.55,1.98c-1.22-0.16-2.1-1.27-1.98-2.49l0.21-2.17l0.37-1.87c0.23-1.27,0.56-2.43,0.84-3.64
	c0.28-1.21,0.62-2.38,0.93-3.56c0.3-1.19,0.65-2.36,0.98-3.53c0.65-2.32,1.32-4.62,2.01-6.92c-2.2,0.29-4.48,0.32-6.78-0.07
	c-2.34-0.41-4.84-1.29-6.7-3.19c-0.97-0.9-1.66-2.06-2.21-3.25c-0.51-1.21-0.79-2.49-0.9-3.78c-0.14-2.56,0.39-5.11,1.58-7.4
	c0.61-1.15,1.35-2.25,2.34-3.21c0.23-0.25,0.51-0.47,0.78-0.69c0.27-0.22,0.54-0.44,0.92-0.66l0.54-0.31
	c0.18-0.1,0.39-0.21,0.49-0.24l0.76-0.32c1.17-0.5,2.52,0.05,3.02,1.22c0.49,1.17-0.06,2.52-1.23,3.01
	c-0.06,0.03-0.13,0.06-0.19,0.08h-0.01l-0.79,0.25c-0.17,0.04-0.2,0.08-0.26,0.11c-0.06,0.04-0.12,0.07-0.19,0.09
	c-0.11,0.03-0.28,0.15-0.45,0.27c-0.17,0.11-0.34,0.2-0.49,0.36c-0.67,0.5-1.22,1.23-1.71,2c-0.97,1.56-1.5,3.46-1.53,5.3
	c0.01,0.93,0.15,1.83,0.43,2.69c0.34,0.81,0.75,1.63,1.38,2.27c1.18,1.35,3.02,2.17,4.96,2.59c1.97,0.41,4.08,0.47,6.19,0.25
	c0.29-0.01,0.58-0.04,0.87-0.08c0.02-0.06,0.04-0.12,0.06-0.18c0.42-1.39,0.85-2.79,1.29-4.18c0.24-0.79,0.49-1.58,0.74-2.36
	c2.53-8.1,5.15-16.15,7.83-24.19c0.12-0.39,0.25-0.77,0.38-1.16c0.41-1.21,1.71-1.86,2.91-1.45c0.77,0.25,1.31,0.88,1.5,1.62v0.02
	l6.09,24.99c1.01-0.44,2.03-0.86,3.06-1.25c2.1-0.8,4.25-1.51,6.57-1.92c1.15-0.18,2.38-0.29,3.71,0.01
	c0.66,0.16,1.36,0.46,1.93,0.99c0.58,0.53,0.95,1.24,1.14,1.92C66.185,37.353,66.055,38.583,65.875,39.753z M40.775,20.113
	c-2.2,6.66-4.34,13.33-6.42,20.01c-0.21,0.67-0.42,1.34-0.62,2.02c0.11-0.02,0.23-0.05,0.34-0.08c1.04-0.3,2.09-0.56,3.12-0.91
	c1.02-0.35,2.06-0.67,3.08-1.05l3.06-1.18l1.82-0.8L40.775,20.113z M63.725,36.563c-0.2-0.78-0.65-1.19-1.48-1.41
	c-0.83-0.2-1.85-0.16-2.87,0c-2.05,0.32-4.11,1.04-6.12,1.81c-0.7,0.27-1.4,0.56-2.09,0.86c-0.01,0-0.01,0-0.01,0
	c-0.4,0.18-0.81,0.35-1.21,0.54l3.17,13.02l1.94,7.97c0.74-1.7,1.53-3.35,2.32-5c0.98-2,1.96-3.98,2.88-5.97
	c0.93-1.98,1.82-3.98,2.53-6c0.35-1.01,0.67-2.03,0.86-3.03C63.855,38.363,63.945,37.343,63.725,36.563z M40.775,20.113
	c-2.2,6.66-4.34,13.33-6.42,20.01c-0.21,0.67-0.42,1.34-0.62,2.02c0.11-0.02,0.23-0.05,0.34-0.08c1.04-0.3,2.09-0.56,3.12-0.91
	c1.02-0.35,2.06-0.67,3.08-1.05l3.06-1.18l1.82-0.8L40.775,20.113z M40.775,20.113c-2.2,6.66-4.34,13.33-6.42,20.01
	c-0.21,0.67-0.42,1.34-0.62,2.02c0.11-0.02,0.23-0.05,0.34-0.08c1.04-0.3,2.09-0.56,3.12-0.91c1.02-0.35,2.06-0.67,3.08-1.05
	l3.06-1.18l1.82-0.8L40.775,20.113z M40.775,20.113c-2.2,6.66-4.34,13.33-6.42,20.01c-0.21,0.67-0.42,1.34-0.62,2.02
	c0.11-0.02,0.23-0.05,0.34-0.08c1.04-0.3,2.09-0.56,3.12-0.91c1.02-0.35,2.06-0.67,3.08-1.05l3.06-1.18l1.82-0.8L40.775,20.113z
	 M40.775,20.113c-2.2,6.66-4.34,13.33-6.42,20.01c-0.21,0.67-0.42,1.34-0.62,2.02c0.11-0.02,0.23-0.05,0.34-0.08
	c1.04-0.3,2.09-0.56,3.12-0.91c1.02-0.35,2.06-0.67,3.08-1.05l3.06-1.18l1.82-0.8L40.775,20.113z M40.775,20.113
	c-2.2,6.66-4.34,13.33-6.42,20.01c-0.21,0.67-0.42,1.34-0.62,2.02c0.11-0.02,0.23-0.05,0.34-0.08c1.04-0.3,2.09-0.56,3.12-0.91
	c1.02-0.35,2.06-0.67,3.08-1.05l3.06-1.18l1.82-0.8L40.775,20.113z"/>
<linearGradient id="SVGID_9_" gradientUnits="userSpaceOnUse" x1="616.3271" y1="0.4882" x2="616.3271" y2="78.1656">
	<stop  offset="0" style="stop-color:#E42183"/>
	<stop  offset="1" style="stop-color:#E64272"/>
</linearGradient>
<path fill="url(#SVGID_9_)" d="M614.733,0.217c37.604,0,40.454,3.417,40.454,40.454s-1.234,37.265-37.265,37.265
	c-36.031,0-40.454-0.288-40.454-40.454S577.129,0.217,614.733,0.217z"/>
<path fill="none" stroke="#FFFFFF" stroke-width="2" stroke-linecap="round" stroke-linejoin="round" stroke-miterlimit="10" d="
	M610.44,37.936c-17.301-9.849-6.261,9.434,11.558,0.79c8.135-3.946,5.602,23.004,5.602,23.004l-10.668-43.809
	c0,0-12.842,38.167-12.842,43.809"/>
<path fill="none" stroke="#FFFFFF" stroke-width="2" stroke-linecap="round" stroke-linejoin="round" stroke-miterlimit="10" d="
	M640.788,61.28c-12.827,12.827-35.337,12.331-47.668,0s-10.345-37.323,0-47.668s41.709-5.958,47.668,0
	C646.746,19.571,653.615,48.453,640.788,61.28z"/>
<linearGradient id="SVGID_10_" gradientUnits="userSpaceOnUse" x1="606.0338" y1="102.3998" x2="606.0338" y2="179.9954">
	<stop  offset="0" style="stop-color:#E42183"/>
	<stop  offset="1" style="stop-color:#E64272"/>
</linearGradient>
<path fill="url(#SVGID_10_)" d="M609.244,140.351c-0.12,0.39-0.25,0.79-0.37,1.18c-1.86-0.44-3.18-1.11-3.82-1.5
	c-1.41-0.84-2.04-1.64-2.23-2.03C603.354,137.951,605.064,138.061,609.244,140.351z"/>
<linearGradient id="SVGID_11_" gradientUnits="userSpaceOnUse" x1="616.3059" y1="102.5695" x2="616.3059" y2="180.2175">
	<stop  offset="0" style="stop-color:#E42183"/>
	<stop  offset="1" style="stop-color:#E64272"/>
</linearGradient>
<path fill="url(#SVGID_11_)" d="M646.835,136.903c-0.89-9.91-4.14-18.03-6.75-20.64c-2.87-2.87-13.71-5.93-25.29-5.93
	c-9.7,0-17.14,2.1-20.97,5.93c-10.09,10.09-11.91,34.34,0,46.25c5.81,5.81,14.27,9.14,23.2,9.14c8.84,0,17.25-3.33,23.06-9.14
	C647.315,155.283,647.415,143.363,646.835,136.903z M628.595,163.763c-0.04,0.49-0.43,0.87-0.92,0.9c-0.03,0.01-0.05,0.01-0.07,0.01
	c-0.46,0-0.87-0.32-0.98-0.77l-5.31-21.82c-4.17,1.79-7.93,2.13-11.06,1.73c-2.84,9.27-5.16,17.57-5.16,19.86c0,0.55-0.45,1-1,1
	c-0.56,0-1-0.45-1-1c0-2.55,2.43-11.23,5.19-20.23c-3.39-0.83-5.79-2.51-6.8-3.83c-1.24-1.62-0.55-2.65-0.3-2.93
	c1.4-1.61,5.29-0.09,8.67,1.72c2.98-9.49,5.88-18.12,6.13-18.86c0.14-0.42,0.55-0.71,0.99-0.68c0.45,0.02,0.82,0.33,0.93,0.76
	l4.81,19.74c1.22-0.27,2.13,0.1,2.73,0.52C630.365,143.293,628.795,161.673,628.595,163.763z"/>
<linearGradient id="SVGID_12_" gradientUnits="userSpaceOnUse" x1="615.8438" y1="102.1313" x2="615.8438" y2="179.9882">
	<stop  offset="0" style="stop-color:#E42183"/>
	<stop  offset="1" style="stop-color:#E64272"/>
</linearGradient>
<path fill="url(#SVGID_12_)" d="M616.784,123.461l4.05,16.64c-3.94,1.76-7.33,2.05-9.98,1.77c0.17-0.53,0.33-1.06,0.5-1.59
	c0.03-0.07,0.06-0.15,0.07-0.23C613.244,134.241,615.174,128.311,616.784,123.461z"/>
<linearGradient id="SVGID_13_" gradientUnits="userSpaceOnUse" x1="625.0812" y1="102.277" x2="625.0812" y2="180.0134">
	<stop  offset="0" style="stop-color:#E42183"/>
	<stop  offset="1" style="stop-color:#E64272"/>
</linearGradient>
<path fill="url(#SVGID_13_)" d="M626.964,156.841l-3.78-15.54c0.55-0.1,0.89,0.06,1.12,0.22
	C626.494,143.041,627.084,150.201,626.964,156.841z"/>
<linearGradient id="SVGID_14_" gradientUnits="userSpaceOnUse" x1="616.325" y1="102.4246" x2="616.325" y2="180.1033">
	<stop  offset="0" style="stop-color:#E42183"/>
	<stop  offset="1" style="stop-color:#E64272"/>
</linearGradient>
<path fill="url(#SVGID_14_)" d="M614.735,102.153c-37.6,0-37.27-2.9-37.27,37.27c0,40.16,4.43,40.45,40.46,40.45
	c36.03,0,37.26-0.23,37.26-37.26C655.185,105.573,652.335,102.153,614.735,102.153z M641.495,163.923
	c-6.18,6.19-15.1,9.73-24.47,9.73c-9.46,0-18.43-3.54-24.61-9.73c-5.87-5.87-9.08-15.09-8.8-25.31c0.27-9.64,3.55-18.52,8.8-23.77
	c5.67-5.67,16.45-6.51,22.38-6.51c11.32,0,23.05,2.86,26.7,6.51c3.42,3.42,6.5,12.62,7.33,21.88
	C649.445,143.533,649.305,156.123,641.495,163.923z"/>
<linearGradient id="SVGID_15_" gradientUnits="userSpaceOnUse" x1="601.5251" y1="-125.0187" x2="601.5251" y2="-47.5218">
	<stop  offset="0" style="stop-color:#E42183"/>
	<stop  offset="1" style="stop-color:#E74E68"/>
</linearGradient>
<path fill="url(#SVGID_15_)" d="M604.735-87.017c-0.12,0.4-0.24,0.79-0.37,1.18c-1.86-0.44-3.17-1.11-3.82-1.5
	c-1.41-0.84-2.04-1.63-2.23-2.02C598.845-89.407,600.555-89.307,604.735-87.017z"/>
<linearGradient id="SVGID_16_" gradientUnits="userSpaceOnUse" x1="611.3401" y1="-124.9061" x2="611.3401" y2="-47.4375">
	<stop  offset="0" style="stop-color:#E42183"/>
	<stop  offset="1" style="stop-color:#E74E68"/>
</linearGradient>
<path fill="url(#SVGID_16_)" d="M612.275-103.897l4.05,16.63c-3.94,1.76-7.33,2.06-9.97,1.77c0.16-0.53,0.33-1.06,0.49-1.59
	c0.03-0.07,0.06-0.15,0.07-0.22C608.735-93.127,610.665-99.047,612.275-103.897z"/>
<linearGradient id="SVGID_17_" gradientUnits="userSpaceOnUse" x1="620.5764" y1="-125.0459" x2="620.5764" y2="-47.4869">
	<stop  offset="0" style="stop-color:#E42183"/>
	<stop  offset="1" style="stop-color:#E74E68"/>
</linearGradient>
<path fill="url(#SVGID_17_)" d="M622.465-70.517l-3.79-15.55c0.56-0.1,0.9,0.06,1.12,0.22
	C621.995-84.327,622.575-77.157,622.465-70.517z"/>
<linearGradient id="SVGID_18_" gradientUnits="userSpaceOnUse" x1="611.825" y1="-124.9354" x2="611.825" y2="-47.2568">
	<stop  offset="0" style="stop-color:#E42183"/>
	<stop  offset="1" style="stop-color:#E74E68"/>
</linearGradient>
<path fill="url(#SVGID_18_)" d="M635.575-111.107c-2.86-2.86-13.71-5.93-25.29-5.93c-9.7,0-17.14,2.11-20.96,5.93
	c-10.1,10.1-11.92,34.34,0,46.25c5.81,5.81,14.26,9.14,23.2,9.14c8.84,0,17.24-3.33,23.05-9.14
	C648.035-77.317,641.075-105.607,635.575-111.107z M624.095-63.607c-0.05,0.49-0.44,0.87-0.93,0.91h-0.07
	c-0.46,0-0.86-0.31-0.97-0.77l-5.32-21.82c-4.16,1.79-7.93,2.13-11.05,1.73c-2.85,9.27-5.17,17.58-5.17,19.86c0,0.55-0.45,1-1,1
	c-0.55,0-1-0.45-1-1c0-2.55,2.44-11.23,5.19-20.22c-3.39-0.84-5.79-2.52-6.8-3.84c-1.23-1.62-0.54-2.65-0.3-2.93
	c1.41-1.6,5.29-0.09,8.67,1.73c2.99-9.5,5.88-18.13,6.13-18.87c0.15-0.42,0.52-0.71,0.99-0.68c0.45,0.02,0.83,0.33,0.93,0.76
	l4.81,19.74c1.22-0.26,2.14,0.1,2.73,0.52C625.865-84.077,624.285-65.687,624.095-63.607z M635.575-111.107
	c-2.86-2.86-13.71-5.93-25.29-5.93c-9.7,0-17.14,2.11-20.96,5.93c-10.1,10.1-11.92,34.34,0,46.25c5.81,5.81,14.26,9.14,23.2,9.14
	c8.84,0,17.24-3.33,23.05-9.14C648.035-77.317,641.075-105.607,635.575-111.107z M624.095-63.607c-0.05,0.49-0.44,0.87-0.93,0.91
	h-0.07c-0.46,0-0.86-0.31-0.97-0.77l-5.32-21.82c-4.16,1.79-7.93,2.13-11.05,1.73c-2.85,9.27-5.17,17.58-5.17,19.86
	c0,0.55-0.45,1-1,1c-0.55,0-1-0.45-1-1c0-2.55,2.44-11.23,5.19-20.22c-3.39-0.84-5.79-2.52-6.8-3.84c-1.23-1.62-0.54-2.65-0.3-2.93
	c1.41-1.6,5.29-0.09,8.67,1.73c2.99-9.5,5.88-18.13,6.13-18.87c0.15-0.42,0.52-0.71,0.99-0.68c0.45,0.02,0.83,0.33,0.93,0.76
	l4.81,19.74c1.22-0.26,2.14,0.1,2.73,0.52C625.865-84.077,624.285-65.687,624.095-63.607z M635.575-111.107
	c-2.86-2.86-13.71-5.93-25.29-5.93c-9.7,0-17.14,2.11-20.96,5.93c-10.1,10.1-11.92,34.34,0,46.25c5.81,5.81,14.26,9.14,23.2,9.14
	c8.84,0,17.24-3.33,23.05-9.14C648.035-77.317,641.075-105.607,635.575-111.107z M624.095-63.607c-0.05,0.49-0.44,0.87-0.93,0.91
	h-0.07c-0.46,0-0.86-0.31-0.97-0.77l-5.32-21.82c-4.16,1.79-7.93,2.13-11.05,1.73c-2.85,9.27-5.17,17.58-5.17,19.86
	c0,0.55-0.45,1-1,1c-0.55,0-1-0.45-1-1c0-2.55,2.44-11.23,5.19-20.22c-3.39-0.84-5.79-2.52-6.8-3.84c-1.23-1.62-0.54-2.65-0.3-2.93
	c1.41-1.6,5.29-0.09,8.67,1.73c2.99-9.5,5.88-18.13,6.13-18.87c0.15-0.42,0.52-0.71,0.99-0.68c0.45,0.02,0.83,0.33,0.93,0.76
	l4.81,19.74c1.22-0.26,2.14,0.1,2.73,0.52C625.865-84.077,624.285-65.687,624.095-63.607z M635.575-111.107
	c-2.86-2.86-13.71-5.93-25.29-5.93c-9.7,0-17.14,2.11-20.96,5.93c-10.1,10.1-11.92,34.34,0,46.25c5.81,5.81,14.26,9.14,23.2,9.14
	c8.84,0,17.24-3.33,23.05-9.14C648.035-77.317,641.075-105.607,635.575-111.107z M624.095-63.607c-0.05,0.49-0.44,0.87-0.93,0.91
	h-0.07c-0.46,0-0.86-0.31-0.97-0.77l-5.32-21.82c-4.16,1.79-7.93,2.13-11.05,1.73c-2.85,9.27-5.17,17.58-5.17,19.86
	c0,0.55-0.45,1-1,1c-0.55,0-1-0.45-1-1c0-2.55,2.44-11.23,5.19-20.22c-3.39-0.84-5.79-2.52-6.8-3.84c-1.23-1.62-0.54-2.65-0.3-2.93
	c1.41-1.6,5.29-0.09,8.67,1.73c2.99-9.5,5.88-18.13,6.13-18.87c0.15-0.42,0.52-0.71,0.99-0.68c0.45,0.02,0.83,0.33,0.93,0.76
	l4.81,19.74c1.22-0.26,2.14,0.1,2.73,0.52C625.865-84.077,624.285-65.687,624.095-63.607z M635.575-111.107
	c-2.86-2.86-13.71-5.93-25.29-5.93c-9.7,0-17.14,2.11-20.96,5.93c-10.1,10.1-11.92,34.34,0,46.25c5.81,5.81,14.26,9.14,23.2,9.14
	c8.84,0,17.24-3.33,23.05-9.14C648.035-77.317,641.075-105.607,635.575-111.107z M624.095-63.607c-0.05,0.49-0.44,0.87-0.93,0.91
	h-0.07c-0.46,0-0.86-0.31-0.97-0.77l-5.32-21.82c-4.16,1.79-7.93,2.13-11.05,1.73c-2.85,9.27-5.17,17.58-5.17,19.86
	c0,0.55-0.45,1-1,1c-0.55,0-1-0.45-1-1c0-2.55,2.44-11.23,5.19-20.22c-3.39-0.84-5.79-2.52-6.8-3.84c-1.23-1.62-0.54-2.65-0.3-2.93
	c1.41-1.6,5.29-0.09,8.67,1.73c2.99-9.5,5.88-18.13,6.13-18.87c0.15-0.42,0.52-0.71,0.99-0.68c0.45,0.02,0.83,0.33,0.93,0.76
	l4.81,19.74c1.22-0.26,2.14,0.1,2.73,0.52C625.865-84.077,624.285-65.687,624.095-63.607z M635.575-111.107
	c-2.86-2.86-13.71-5.93-25.29-5.93c-9.7,0-17.14,2.11-20.96,5.93c-10.1,10.1-11.92,34.34,0,46.25c5.81,5.81,14.26,9.14,23.2,9.14
	c8.84,0,17.24-3.33,23.05-9.14C648.035-77.317,641.075-105.607,635.575-111.107z M624.095-63.607c-0.05,0.49-0.44,0.87-0.93,0.91
	h-0.07c-0.46,0-0.86-0.31-0.97-0.77l-5.32-21.82c-4.16,1.79-7.93,2.13-11.05,1.73c-2.85,9.27-5.17,17.58-5.17,19.86
	c0,0.55-0.45,1-1,1c-0.55,0-1-0.45-1-1c0-2.55,2.44-11.23,5.19-20.22c-3.39-0.84-5.79-2.52-6.8-3.84c-1.23-1.62-0.54-2.65-0.3-2.93
	c1.41-1.6,5.29-0.09,8.67,1.73c2.99-9.5,5.88-18.13,6.13-18.87c0.15-0.42,0.52-0.71,0.99-0.68c0.45,0.02,0.83,0.33,0.93,0.76
	l4.81,19.74c1.22-0.26,2.14,0.1,2.73,0.52C625.865-84.077,624.285-65.687,624.095-63.607z M635.575-111.107
	c-2.86-2.86-13.71-5.93-25.29-5.93c-9.7,0-17.14,2.11-20.96,5.93c-10.1,10.1-11.92,34.34,0,46.25c5.81,5.81,14.26,9.14,23.2,9.14
	c8.84,0,17.24-3.33,23.05-9.14C648.035-77.317,641.075-105.607,635.575-111.107z M624.095-63.607c-0.05,0.49-0.44,0.87-0.93,0.91
	h-0.07c-0.46,0-0.86-0.31-0.97-0.77l-5.32-21.82c-4.16,1.79-7.93,2.13-11.05,1.73c-2.85,9.27-5.17,17.58-5.17,19.86
	c0,0.55-0.45,1-1,1c-0.55,0-1-0.45-1-1c0-2.55,2.44-11.23,5.19-20.22c-3.39-0.84-5.79-2.52-6.8-3.84c-1.23-1.62-0.54-2.65-0.3-2.93
	c1.41-1.6,5.29-0.09,8.67,1.73c2.99-9.5,5.88-18.13,6.13-18.87c0.15-0.42,0.52-0.71,0.99-0.68c0.45,0.02,0.83,0.33,0.93,0.76
	l4.81,19.74c1.22-0.26,2.14,0.1,2.73,0.52C625.865-84.077,624.285-65.687,624.095-63.607z M635.575-111.107
	c-2.86-2.86-13.71-5.93-25.29-5.93c-9.7,0-17.14,2.11-20.96,5.93c-10.1,10.1-11.92,34.34,0,46.25c5.81,5.81,14.26,9.14,23.2,9.14
	c8.84,0,17.24-3.33,23.05-9.14C648.035-77.317,641.075-105.607,635.575-111.107z M624.095-63.607c-0.05,0.49-0.44,0.87-0.93,0.91
	h-0.07c-0.46,0-0.86-0.31-0.97-0.77l-5.32-21.82c-4.16,1.79-7.93,2.13-11.05,1.73c-2.85,9.27-5.17,17.58-5.17,19.86
	c0,0.55-0.45,1-1,1c-0.55,0-1-0.45-1-1c0-2.55,2.44-11.23,5.19-20.22c-3.39-0.84-5.79-2.52-6.8-3.84c-1.23-1.62-0.54-2.65-0.3-2.93
	c1.41-1.6,5.29-0.09,8.67,1.73c2.99-9.5,5.88-18.13,6.13-18.87c0.15-0.42,0.52-0.71,0.99-0.68c0.45,0.02,0.83,0.33,0.93,0.76
	l4.81,19.74c1.22-0.26,2.14,0.1,2.73,0.52C625.865-84.077,624.285-65.687,624.095-63.607z M635.575-111.107
	c-2.86-2.86-13.71-5.93-25.29-5.93c-9.7,0-17.14,2.11-20.96,5.93c-10.1,10.1-11.92,34.34,0,46.25c5.81,5.81,14.26,9.14,23.2,9.14
	c8.84,0,17.24-3.33,23.05-9.14C648.035-77.317,641.075-105.607,635.575-111.107z M624.095-63.607c-0.05,0.49-0.44,0.87-0.93,0.91
	h-0.07c-0.46,0-0.86-0.31-0.97-0.77l-5.32-21.82c-4.16,1.79-7.93,2.13-11.05,1.73c-2.85,9.27-5.17,17.58-5.17,19.86
	c0,0.55-0.45,1-1,1c-0.55,0-1-0.45-1-1c0-2.55,2.44-11.23,5.19-20.22c-3.39-0.84-5.79-2.52-6.8-3.84c-1.23-1.62-0.54-2.65-0.3-2.93
	c1.41-1.6,5.29-0.09,8.67,1.73c2.99-9.5,5.88-18.13,6.13-18.87c0.15-0.42,0.52-0.71,0.99-0.68c0.45,0.02,0.83,0.33,0.93,0.76
	l4.81,19.74c1.22-0.26,2.14,0.1,2.73,0.52C625.865-84.077,624.285-65.687,624.095-63.607z M635.575-111.107
	c-2.86-2.86-13.71-5.93-25.29-5.93c-9.7,0-17.14,2.11-20.96,5.93c-10.1,10.1-11.92,34.34,0,46.25c5.81,5.81,14.26,9.14,23.2,9.14
	c8.84,0,17.24-3.33,23.05-9.14C648.035-77.317,641.075-105.607,635.575-111.107z M624.095-63.607c-0.05,0.49-0.44,0.87-0.93,0.91
	h-0.07c-0.46,0-0.86-0.31-0.97-0.77l-5.32-21.82c-4.16,1.79-7.93,2.13-11.05,1.73c-2.85,9.27-5.17,17.58-5.17,19.86
	c0,0.55-0.45,1-1,1c-0.55,0-1-0.45-1-1c0-2.55,2.44-11.23,5.19-20.22c-3.39-0.84-5.79-2.52-6.8-3.84c-1.23-1.62-0.54-2.65-0.3-2.93
	c1.41-1.6,5.29-0.09,8.67,1.73c2.99-9.5,5.88-18.13,6.13-18.87c0.15-0.42,0.52-0.71,0.99-0.68c0.45,0.02,0.83,0.33,0.93,0.76
	l4.81,19.74c1.22-0.26,2.14,0.1,2.73,0.52C625.865-84.077,624.285-65.687,624.095-63.607z M635.575-111.107
	c-2.86-2.86-13.71-5.93-25.29-5.93c-9.7,0-17.14,2.11-20.96,5.93c-10.1,10.1-11.92,34.34,0,46.25c5.81,5.81,14.26,9.14,23.2,9.14
	c8.84,0,17.24-3.33,23.05-9.14C648.035-77.317,641.075-105.607,635.575-111.107z M624.095-63.607c-0.05,0.49-0.44,0.87-0.93,0.91
	h-0.07c-0.46,0-0.86-0.31-0.97-0.77l-5.32-21.82c-4.16,1.79-7.93,2.13-11.05,1.73c-2.85,9.27-5.17,17.58-5.17,19.86
	c0,0.55-0.45,1-1,1c-0.55,0-1-0.45-1-1c0-2.55,2.44-11.23,5.19-20.22c-3.39-0.84-5.79-2.52-6.8-3.84c-1.23-1.62-0.54-2.65-0.3-2.93
	c1.41-1.6,5.29-0.09,8.67,1.73c2.99-9.5,5.88-18.13,6.13-18.87c0.15-0.42,0.52-0.71,0.99-0.68c0.45,0.02,0.83,0.33,0.93,0.76
	l4.81,19.74c1.22-0.26,2.14,0.1,2.73,0.52C625.865-84.077,624.285-65.687,624.095-63.607z M635.575-111.107
	c-2.86-2.86-13.71-5.93-25.29-5.93c-9.7,0-17.14,2.11-20.96,5.93c-10.1,10.1-11.92,34.34,0,46.25c5.81,5.81,14.26,9.14,23.2,9.14
	c8.84,0,17.24-3.33,23.05-9.14C648.035-77.317,641.075-105.607,635.575-111.107z M624.095-63.607c-0.05,0.49-0.44,0.87-0.93,0.91
	h-0.07c-0.46,0-0.86-0.31-0.97-0.77l-5.32-21.82c-4.16,1.79-7.93,2.13-11.05,1.73c-2.85,9.27-5.17,17.58-5.17,19.86
	c0,0.55-0.45,1-1,1c-0.55,0-1-0.45-1-1c0-2.55,2.44-11.23,5.19-20.22c-3.39-0.84-5.79-2.52-6.8-3.84c-1.23-1.62-0.54-2.65-0.3-2.93
	c1.41-1.6,5.29-0.09,8.67,1.73c2.99-9.5,5.88-18.13,6.13-18.87c0.15-0.42,0.52-0.71,0.99-0.68c0.45,0.02,0.83,0.33,0.93,0.76
	l4.81,19.74c1.22-0.26,2.14,0.1,2.73,0.52C625.865-84.077,624.285-65.687,624.095-63.607z M610.225-125.207
	c-37.6,0-37.26-2.9-37.26,37.26c0,40.17,4.42,40.46,40.45,40.46c36.03,0,37.27-0.23,37.27-37.27
	C650.685-125.257,650.685-125.207,610.225-125.207z M636.985-63.437c-6.18,6.18-15.1,9.72-24.46,9.72c-9.46,0-18.44-3.54-24.62-9.72
	c-5.87-5.87-9.07-15.1-8.79-25.32c0.26-9.64,3.55-18.52,8.79-23.77c5.67-5.66,16.46-6.51,22.38-6.51c11.32,0,23.05,2.86,26.7,6.51
	C643.005-106.507,650.485-76.937,636.985-63.437z M610.285-117.037c-9.7,0-17.14,2.11-20.96,5.93c-10.1,10.1-11.92,34.34,0,46.25
	c5.81,5.81,14.26,9.14,23.2,9.14c8.84,0,17.24-3.33,23.05-9.14c12.46-12.46,5.5-40.75,0-46.25
	C632.715-113.967,621.865-117.037,610.285-117.037z M624.095-63.607c-0.05,0.49-0.44,0.87-0.93,0.91h-0.07
	c-0.46,0-0.86-0.31-0.97-0.77l-5.32-21.82c-4.16,1.79-7.93,2.13-11.05,1.73c-2.85,9.27-5.17,17.58-5.17,19.86c0,0.55-0.45,1-1,1
	c-0.55,0-1-0.45-1-1c0-2.55,2.44-11.23,5.19-20.22c-3.39-0.84-5.79-2.52-6.8-3.84c-1.23-1.62-0.54-2.65-0.3-2.93
	c1.41-1.6,5.29-0.09,8.67,1.73c2.99-9.5,5.88-18.13,6.13-18.87c0.15-0.42,0.52-0.71,0.99-0.68c0.45,0.02,0.83,0.33,0.93,0.76
	l4.81,19.74c1.22-0.26,2.14,0.1,2.73,0.52C625.865-84.077,624.285-65.687,624.095-63.607z M635.575-111.107
	c-2.86-2.86-13.71-5.93-25.29-5.93c-9.7,0-17.14,2.11-20.96,5.93c-10.1,10.1-11.92,34.34,0,46.25c5.81,5.81,14.26,9.14,23.2,9.14
	c8.84,0,17.24-3.33,23.05-9.14C648.035-77.317,641.075-105.607,635.575-111.107z M624.095-63.607c-0.05,0.49-0.44,0.87-0.93,0.91
	h-0.07c-0.46,0-0.86-0.31-0.97-0.77l-5.32-21.82c-4.16,1.79-7.93,2.13-11.05,1.73c-2.85,9.27-5.17,17.58-5.17,19.86
	c0,0.55-0.45,1-1,1c-0.55,0-1-0.45-1-1c0-2.55,2.44-11.23,5.19-20.22c-3.39-0.84-5.79-2.52-6.8-3.84c-1.23-1.62-0.54-2.65-0.3-2.93
	c1.41-1.6,5.29-0.09,8.67,1.73c2.99-9.5,5.88-18.13,6.13-18.87c0.15-0.42,0.52-0.71,0.99-0.68c0.45,0.02,0.83,0.33,0.93,0.76
	l4.81,19.74c1.22-0.26,2.14,0.1,2.73,0.52C625.865-84.077,624.285-65.687,624.095-63.607z M635.575-111.107
	c-2.86-2.86-13.71-5.93-25.29-5.93c-9.7,0-17.14,2.11-20.96,5.93c-10.1,10.1-11.92,34.34,0,46.25c5.81,5.81,14.26,9.14,23.2,9.14
	c8.84,0,17.24-3.33,23.05-9.14C648.035-77.317,641.075-105.607,635.575-111.107z M624.095-63.607c-0.05,0.49-0.44,0.87-0.93,0.91
	h-0.07c-0.46,0-0.86-0.31-0.97-0.77l-5.32-21.82c-4.16,1.79-7.93,2.13-11.05,1.73c-2.85,9.27-5.17,17.58-5.17,19.86
	c0,0.55-0.45,1-1,1c-0.55,0-1-0.45-1-1c0-2.55,2.44-11.23,5.19-20.22c-3.39-0.84-5.79-2.52-6.8-3.84c-1.23-1.62-0.54-2.65-0.3-2.93
	c1.41-1.6,5.29-0.09,8.67,1.73c2.99-9.5,5.88-18.13,6.13-18.87c0.15-0.42,0.52-0.71,0.99-0.68c0.45,0.02,0.83,0.33,0.93,0.76
	l4.81,19.74c1.22-0.26,2.14,0.1,2.73,0.52C625.865-84.077,624.285-65.687,624.095-63.607z M635.575-111.107
	c-2.86-2.86-13.71-5.93-25.29-5.93c-9.7,0-17.14,2.11-20.96,5.93c-10.1,10.1-11.92,34.34,0,46.25c5.81,5.81,14.26,9.14,23.2,9.14
	c8.84,0,17.24-3.33,23.05-9.14C648.035-77.317,641.075-105.607,635.575-111.107z M624.095-63.607c-0.05,0.49-0.44,0.87-0.93,0.91
	h-0.07c-0.46,0-0.86-0.31-0.97-0.77l-5.32-21.82c-4.16,1.79-7.93,2.13-11.05,1.73c-2.85,9.27-5.17,17.58-5.17,19.86
	c0,0.55-0.45,1-1,1c-0.55,0-1-0.45-1-1c0-2.55,2.44-11.23,5.19-20.22c-3.39-0.84-5.79-2.52-6.8-3.84c-1.23-1.62-0.54-2.65-0.3-2.93
	c1.41-1.6,5.29-0.09,8.67,1.73c2.99-9.5,5.88-18.13,6.13-18.87c0.15-0.42,0.52-0.71,0.99-0.68c0.45,0.02,0.83,0.33,0.93,0.76
	l4.81,19.74c1.22-0.26,2.14,0.1,2.73,0.52C625.865-84.077,624.285-65.687,624.095-63.607z M635.575-111.107
	c-2.86-2.86-13.71-5.93-25.29-5.93c-9.7,0-17.14,2.11-20.96,5.93c-10.1,10.1-11.92,34.34,0,46.25c5.81,5.81,14.26,9.14,23.2,9.14
	c8.84,0,17.24-3.33,23.05-9.14C648.035-77.317,641.075-105.607,635.575-111.107z M624.095-63.607c-0.05,0.49-0.44,0.87-0.93,0.91
	h-0.07c-0.46,0-0.86-0.31-0.97-0.77l-5.32-21.82c-4.16,1.79-7.93,2.13-11.05,1.73c-2.85,9.27-5.17,17.58-5.17,19.86
	c0,0.55-0.45,1-1,1c-0.55,0-1-0.45-1-1c0-2.55,2.44-11.23,5.19-20.22c-3.39-0.84-5.79-2.52-6.8-3.84c-1.23-1.62-0.54-2.65-0.3-2.93
	c1.41-1.6,5.29-0.09,8.67,1.73c2.99-9.5,5.88-18.13,6.13-18.87c0.15-0.42,0.52-0.71,0.99-0.68c0.45,0.02,0.83,0.33,0.93,0.76
	l4.81,19.74c1.22-0.26,2.14,0.1,2.73,0.52C625.865-84.077,624.285-65.687,624.095-63.607z M635.575-111.107
	c-2.86-2.86-13.71-5.93-25.29-5.93c-9.7,0-17.14,2.11-20.96,5.93c-10.1,10.1-11.92,34.34,0,46.25c5.81,5.81,14.26,9.14,23.2,9.14
	c8.84,0,17.24-3.33,23.05-9.14C648.035-77.317,641.075-105.607,635.575-111.107z M624.095-63.607c-0.05,0.49-0.44,0.87-0.93,0.91
	h-0.07c-0.46,0-0.86-0.31-0.97-0.77l-5.32-21.82c-4.16,1.79-7.93,2.13-11.05,1.73c-2.85,9.27-5.17,17.58-5.17,19.86
	c0,0.55-0.45,1-1,1c-0.55,0-1-0.45-1-1c0-2.55,2.44-11.23,5.19-20.22c-3.39-0.84-5.79-2.52-6.8-3.84c-1.23-1.62-0.54-2.65-0.3-2.93
	c1.41-1.6,5.29-0.09,8.67,1.73c2.99-9.5,5.88-18.13,6.13-18.87c0.15-0.42,0.52-0.71,0.99-0.68c0.45,0.02,0.83,0.33,0.93,0.76
	l4.81,19.74c1.22-0.26,2.14,0.1,2.73,0.52C625.865-84.077,624.285-65.687,624.095-63.607z M635.575-111.107
	c-2.86-2.86-13.71-5.93-25.29-5.93c-9.7,0-17.14,2.11-20.96,5.93c-10.1,10.1-11.92,34.34,0,46.25c5.81,5.81,14.26,9.14,23.2,9.14
	c8.84,0,17.24-3.33,23.05-9.14C648.035-77.317,641.075-105.607,635.575-111.107z M624.095-63.607c-0.05,0.49-0.44,0.87-0.93,0.91
	h-0.07c-0.46,0-0.86-0.31-0.97-0.77l-5.32-21.82c-4.16,1.79-7.93,2.13-11.05,1.73c-2.85,9.27-5.17,17.58-5.17,19.86
	c0,0.55-0.45,1-1,1c-0.55,0-1-0.45-1-1c0-2.55,2.44-11.23,5.19-20.22c-3.39-0.84-5.79-2.52-6.8-3.84c-1.23-1.62-0.54-2.65-0.3-2.93
	c1.41-1.6,5.29-0.09,8.67,1.73c2.99-9.5,5.88-18.13,6.13-18.87c0.15-0.42,0.52-0.71,0.99-0.68c0.45,0.02,0.83,0.33,0.93,0.76
	l4.81,19.74c1.22-0.26,2.14,0.1,2.73,0.52C625.865-84.077,624.285-65.687,624.095-63.607z M635.575-111.107
	c-2.86-2.86-13.71-5.93-25.29-5.93c-9.7,0-17.14,2.11-20.96,5.93c-10.1,10.1-11.92,34.34,0,46.25c5.81,5.81,14.26,9.14,23.2,9.14
	c8.84,0,17.24-3.33,23.05-9.14C648.035-77.317,641.075-105.607,635.575-111.107z M624.095-63.607c-0.05,0.49-0.44,0.87-0.93,0.91
	h-0.07c-0.46,0-0.86-0.31-0.97-0.77l-5.32-21.82c-4.16,1.79-7.93,2.13-11.05,1.73c-2.85,9.27-5.17,17.58-5.17,19.86
	c0,0.55-0.45,1-1,1c-0.55,0-1-0.45-1-1c0-2.55,2.44-11.23,5.19-20.22c-3.39-0.84-5.79-2.52-6.8-3.84c-1.23-1.62-0.54-2.65-0.3-2.93
	c1.41-1.6,5.29-0.09,8.67,1.73c2.99-9.5,5.88-18.13,6.13-18.87c0.15-0.42,0.52-0.71,0.99-0.68c0.45,0.02,0.83,0.33,0.93,0.76
	l4.81,19.74c1.22-0.26,2.14,0.1,2.73,0.52C625.865-84.077,624.285-65.687,624.095-63.607z M635.575-111.107
	c-2.86-2.86-13.71-5.93-25.29-5.93c-9.7,0-17.14,2.11-20.96,5.93c-10.1,10.1-11.92,34.34,0,46.25c5.81,5.81,14.26,9.14,23.2,9.14
	c8.84,0,17.24-3.33,23.05-9.14C648.035-77.317,641.075-105.607,635.575-111.107z M624.095-63.607c-0.05,0.49-0.44,0.87-0.93,0.91
	h-0.07c-0.46,0-0.86-0.31-0.97-0.77l-5.32-21.82c-4.16,1.79-7.93,2.13-11.05,1.73c-2.85,9.27-5.17,17.58-5.17,19.86
	c0,0.55-0.45,1-1,1c-0.55,0-1-0.45-1-1c0-2.55,2.44-11.23,5.19-20.22c-3.39-0.84-5.79-2.52-6.8-3.84c-1.23-1.62-0.54-2.65-0.3-2.93
	c1.41-1.6,5.29-0.09,8.67,1.73c2.99-9.5,5.88-18.13,6.13-18.87c0.15-0.42,0.52-0.71,0.99-0.68c0.45,0.02,0.83,0.33,0.93,0.76
	l4.81,19.74c1.22-0.26,2.14,0.1,2.73,0.52C625.865-84.077,624.285-65.687,624.095-63.607z M635.575-111.107
	c-2.86-2.86-13.71-5.93-25.29-5.93c-9.7,0-17.14,2.11-20.96,5.93c-10.1,10.1-11.92,34.34,0,46.25c5.81,5.81,14.26,9.14,23.2,9.14
	c8.84,0,17.24-3.33,23.05-9.14C648.035-77.317,641.075-105.607,635.575-111.107z M624.095-63.607c-0.05,0.49-0.44,0.87-0.93,0.91
	h-0.07c-0.46,0-0.86-0.31-0.97-0.77l-5.32-21.82c-4.16,1.79-7.93,2.13-11.05,1.73c-2.85,9.27-5.17,17.58-5.17,19.86
	c0,0.55-0.45,1-1,1c-0.55,0-1-0.45-1-1c0-2.55,2.44-11.23,5.19-20.22c-3.39-0.84-5.79-2.52-6.8-3.84c-1.23-1.62-0.54-2.65-0.3-2.93
	c1.41-1.6,5.29-0.09,8.67,1.73c2.99-9.5,5.88-18.13,6.13-18.87c0.15-0.42,0.52-0.71,0.99-0.68c0.45,0.02,0.83,0.33,0.93,0.76
	l4.81,19.74c1.22-0.26,2.14,0.1,2.73,0.52C625.865-84.077,624.285-65.687,624.095-63.607z M635.575-111.107
	c-2.86-2.86-13.71-5.93-25.29-5.93c-9.7,0-17.14,2.11-20.96,5.93c-10.1,10.1-11.92,34.34,0,46.25c5.81,5.81,14.26,9.14,23.2,9.14
	c8.84,0,17.24-3.33,23.05-9.14C648.035-77.317,641.075-105.607,635.575-111.107z M624.095-63.607c-0.05,0.49-0.44,0.87-0.93,0.91
	h-0.07c-0.46,0-0.86-0.31-0.97-0.77l-5.32-21.82c-4.16,1.79-7.93,2.13-11.05,1.73c-2.85,9.27-5.17,17.58-5.17,19.86
	c0,0.55-0.45,1-1,1c-0.55,0-1-0.45-1-1c0-2.55,2.44-11.23,5.19-20.22c-3.39-0.84-5.79-2.52-6.8-3.84c-1.23-1.62-0.54-2.65-0.3-2.93
	c1.41-1.6,5.29-0.09,8.67,1.73c2.99-9.5,5.88-18.13,6.13-18.87c0.15-0.42,0.52-0.71,0.99-0.68c0.45,0.02,0.83,0.33,0.93,0.76
	l4.81,19.74c1.22-0.26,2.14,0.1,2.73,0.52C625.865-84.077,624.285-65.687,624.095-63.607z"/>
<g>
	<path fill="#E42183" d="M691.805-87.017c-0.12,0.39-0.25,0.79-0.37,1.18c-1.86-0.44-3.18-1.11-3.82-1.5
		c-1.41-0.84-2.04-1.63-2.23-2.02C685.915-89.407,687.625-89.307,691.805-87.017z"/>
	<path fill="#E42183" d="M699.345-103.897l4.05,16.63c-3.94,1.76-7.33,2.06-9.98,1.77c0.17-0.53,0.33-1.06,0.5-1.59
		c0.03-0.07,0.05-0.14,0.07-0.22C695.805-93.127,697.735-99.047,699.345-103.897z"/>
	<path fill="#E42183" d="M709.535-70.517l-3.79-15.55c0.55-0.1,0.89,0.06,1.12,0.22C709.055-84.327,709.645-77.157,709.535-70.517z"
		/>
	<path fill="#E42183" d="M722.645-111.107c-2.87-2.86-13.71-5.93-25.29-5.93c-9.7,0-17.14,2.11-20.97,5.93
		c-10.09,10.1-11.91,34.34,0,46.25c5.81,5.81,14.27,9.14,23.2,9.14c8.84,0,17.25-3.33,23.06-9.14
		C735.105-77.317,728.145-105.607,722.645-111.107z M711.155-63.607c-0.04,0.49-0.43,0.87-0.92,0.91h-0.07
		c-0.46,0-0.87-0.31-0.97-0.77l-5.32-21.82c-4.17,1.79-7.93,2.13-11.05,1.73c-2.85,9.27-5.17,17.58-5.17,19.86c0,0.55-0.45,1-1,1
		c-0.56,0-1-0.45-1-1c0-2.55,2.43-11.23,5.19-20.22c-3.39-0.84-5.79-2.52-6.8-3.84c-1.24-1.62-0.55-2.65-0.3-2.93
		c1.4-1.6,5.29-0.09,8.67,1.73c2.98-9.5,5.88-18.13,6.13-18.87c0.14-0.42,0.52-0.71,0.99-0.68c0.45,0.02,0.82,0.33,0.93,0.76
		l4.81,19.74c1.22-0.26,2.13,0.1,2.73,0.52C712.925-84.077,711.355-65.687,711.155-63.607z M722.645-111.107
		c-2.87-2.86-13.71-5.93-25.29-5.93c-9.7,0-17.14,2.11-20.97,5.93c-10.09,10.1-11.91,34.34,0,46.25c5.81,5.81,14.27,9.14,23.2,9.14
		c8.84,0,17.25-3.33,23.06-9.14C735.105-77.317,728.145-105.607,722.645-111.107z M711.155-63.607c-0.04,0.49-0.43,0.87-0.92,0.91
		h-0.07c-0.46,0-0.87-0.31-0.97-0.77l-5.32-21.82c-4.17,1.79-7.93,2.13-11.05,1.73c-2.85,9.27-5.17,17.58-5.17,19.86
		c0,0.55-0.45,1-1,1c-0.56,0-1-0.45-1-1c0-2.55,2.43-11.23,5.19-20.22c-3.39-0.84-5.79-2.52-6.8-3.84c-1.24-1.62-0.55-2.65-0.3-2.93
		c1.4-1.6,5.29-0.09,8.67,1.73c2.98-9.5,5.88-18.13,6.13-18.87c0.14-0.42,0.52-0.71,0.99-0.68c0.45,0.02,0.82,0.33,0.93,0.76
		l4.81,19.74c1.22-0.26,2.13,0.1,2.73,0.52C712.925-84.077,711.355-65.687,711.155-63.607z M722.645-111.107
		c-2.87-2.86-13.71-5.93-25.29-5.93c-9.7,0-17.14,2.11-20.97,5.93c-10.09,10.1-11.91,34.34,0,46.25c5.81,5.81,14.27,9.14,23.2,9.14
		c8.84,0,17.25-3.33,23.06-9.14C735.105-77.317,728.145-105.607,722.645-111.107z M711.155-63.607c-0.04,0.49-0.43,0.87-0.92,0.91
		h-0.07c-0.46,0-0.87-0.31-0.97-0.77l-5.32-21.82c-4.17,1.79-7.93,2.13-11.05,1.73c-2.85,9.27-5.17,17.58-5.17,19.86
		c0,0.55-0.45,1-1,1c-0.56,0-1-0.45-1-1c0-2.55,2.43-11.23,5.19-20.22c-3.39-0.84-5.79-2.52-6.8-3.84c-1.24-1.62-0.55-2.65-0.3-2.93
		c1.4-1.6,5.29-0.09,8.67,1.73c2.98-9.5,5.88-18.13,6.13-18.87c0.14-0.42,0.52-0.71,0.99-0.68c0.45,0.02,0.82,0.33,0.93,0.76
		l4.81,19.74c1.22-0.26,2.13,0.1,2.73,0.52C712.925-84.077,711.355-65.687,711.155-63.607z M722.645-111.107
		c-2.87-2.86-13.71-5.93-25.29-5.93c-9.7,0-17.14,2.11-20.97,5.93c-10.09,10.1-11.91,34.34,0,46.25c5.81,5.81,14.27,9.14,23.2,9.14
		c8.84,0,17.25-3.33,23.06-9.14C735.105-77.317,728.145-105.607,722.645-111.107z M711.155-63.607c-0.04,0.49-0.43,0.87-0.92,0.91
		h-0.07c-0.46,0-0.87-0.31-0.97-0.77l-5.32-21.82c-4.17,1.79-7.93,2.13-11.05,1.73c-2.85,9.27-5.17,17.58-5.17,19.86
		c0,0.55-0.45,1-1,1c-0.56,0-1-0.45-1-1c0-2.55,2.43-11.23,5.19-20.22c-3.39-0.84-5.79-2.52-6.8-3.84c-1.24-1.62-0.55-2.65-0.3-2.93
		c1.4-1.6,5.29-0.09,8.67,1.73c2.98-9.5,5.88-18.13,6.13-18.87c0.14-0.42,0.52-0.71,0.99-0.68c0.45,0.02,0.82,0.33,0.93,0.76
		l4.81,19.74c1.22-0.26,2.13,0.1,2.73,0.52C712.925-84.077,711.355-65.687,711.155-63.607z M722.645-111.107
		c-2.87-2.86-13.71-5.93-25.29-5.93c-9.7,0-17.14,2.11-20.97,5.93c-10.09,10.1-11.91,34.34,0,46.25c5.81,5.81,14.27,9.14,23.2,9.14
		c8.84,0,17.25-3.33,23.06-9.14C735.105-77.317,728.145-105.607,722.645-111.107z M711.155-63.607c-0.04,0.49-0.43,0.87-0.92,0.91
		h-0.07c-0.46,0-0.87-0.31-0.97-0.77l-5.32-21.82c-4.17,1.79-7.93,2.13-11.05,1.73c-2.85,9.27-5.17,17.58-5.17,19.86
		c0,0.55-0.45,1-1,1c-0.56,0-1-0.45-1-1c0-2.55,2.43-11.23,5.19-20.22c-3.39-0.84-5.79-2.52-6.8-3.84c-1.24-1.62-0.55-2.65-0.3-2.93
		c1.4-1.6,5.29-0.09,8.67,1.73c2.98-9.5,5.88-18.13,6.13-18.87c0.14-0.42,0.52-0.71,0.99-0.68c0.45,0.02,0.82,0.33,0.93,0.76
		l4.81,19.74c1.22-0.26,2.13,0.1,2.73,0.52C712.925-84.077,711.355-65.687,711.155-63.607z M722.645-111.107
		c-2.87-2.86-13.71-5.93-25.29-5.93c-9.7,0-17.14,2.11-20.97,5.93c-10.09,10.1-11.91,34.34,0,46.25c5.81,5.81,14.27,9.14,23.2,9.14
		c8.84,0,17.25-3.33,23.06-9.14C735.105-77.317,728.145-105.607,722.645-111.107z M711.155-63.607c-0.04,0.49-0.43,0.87-0.92,0.91
		h-0.07c-0.46,0-0.87-0.31-0.97-0.77l-5.32-21.82c-4.17,1.79-7.93,2.13-11.05,1.73c-2.85,9.27-5.17,17.58-5.17,19.86
		c0,0.55-0.45,1-1,1c-0.56,0-1-0.45-1-1c0-2.55,2.43-11.23,5.19-20.22c-3.39-0.84-5.79-2.52-6.8-3.84c-1.24-1.62-0.55-2.65-0.3-2.93
		c1.4-1.6,5.29-0.09,8.67,1.73c2.98-9.5,5.88-18.13,6.13-18.87c0.14-0.42,0.52-0.71,0.99-0.68c0.45,0.02,0.82,0.33,0.93,0.76
		l4.81,19.74c1.22-0.26,2.13,0.1,2.73,0.52C712.925-84.077,711.355-65.687,711.155-63.607z M722.645-111.107
		c-2.87-2.86-13.71-5.93-25.29-5.93c-9.7,0-17.14,2.11-20.97,5.93c-10.09,10.1-11.91,34.34,0,46.25c5.81,5.81,14.27,9.14,23.2,9.14
		c8.84,0,17.25-3.33,23.06-9.14C735.105-77.317,728.145-105.607,722.645-111.107z M711.155-63.607c-0.04,0.49-0.43,0.87-0.92,0.91
		h-0.07c-0.46,0-0.87-0.31-0.97-0.77l-5.32-21.82c-4.17,1.79-7.93,2.13-11.05,1.73c-2.85,9.27-5.17,17.58-5.17,19.86
		c0,0.55-0.45,1-1,1c-0.56,0-1-0.45-1-1c0-2.55,2.43-11.23,5.19-20.22c-3.39-0.84-5.79-2.52-6.8-3.84c-1.24-1.62-0.55-2.65-0.3-2.93
		c1.4-1.6,5.29-0.09,8.67,1.73c2.98-9.5,5.88-18.13,6.13-18.87c0.14-0.42,0.52-0.71,0.99-0.68c0.45,0.02,0.82,0.33,0.93,0.76
		l4.81,19.74c1.22-0.26,2.13,0.1,2.73,0.52C712.925-84.077,711.355-65.687,711.155-63.607z M722.645-111.107
		c-2.87-2.86-13.71-5.93-25.29-5.93c-9.7,0-17.14,2.11-20.97,5.93c-10.09,10.1-11.91,34.34,0,46.25c5.81,5.81,14.27,9.14,23.2,9.14
		c8.84,0,17.25-3.33,23.06-9.14C735.105-77.317,728.145-105.607,722.645-111.107z M711.155-63.607c-0.04,0.49-0.43,0.87-0.92,0.91
		h-0.07c-0.46,0-0.87-0.31-0.97-0.77l-5.32-21.82c-4.17,1.79-7.93,2.13-11.05,1.73c-2.85,9.27-5.17,17.58-5.17,19.86
		c0,0.55-0.45,1-1,1c-0.56,0-1-0.45-1-1c0-2.55,2.43-11.23,5.19-20.22c-3.39-0.84-5.79-2.52-6.8-3.84c-1.24-1.62-0.55-2.65-0.3-2.93
		c1.4-1.6,5.29-0.09,8.67,1.73c2.98-9.5,5.88-18.13,6.13-18.87c0.14-0.42,0.52-0.71,0.99-0.68c0.45,0.02,0.82,0.33,0.93,0.76
		l4.81,19.74c1.22-0.26,2.13,0.1,2.73,0.52C712.925-84.077,711.355-65.687,711.155-63.607z M722.645-111.107
		c-2.87-2.86-13.71-5.93-25.29-5.93c-9.7,0-17.14,2.11-20.97,5.93c-10.09,10.1-11.91,34.34,0,46.25c5.81,5.81,14.27,9.14,23.2,9.14
		c8.84,0,17.25-3.33,23.06-9.14C735.105-77.317,728.145-105.607,722.645-111.107z M711.155-63.607c-0.04,0.49-0.43,0.87-0.92,0.91
		h-0.07c-0.46,0-0.87-0.31-0.97-0.77l-5.32-21.82c-4.17,1.79-7.93,2.13-11.05,1.73c-2.85,9.27-5.17,17.58-5.17,19.86
		c0,0.55-0.45,1-1,1c-0.56,0-1-0.45-1-1c0-2.55,2.43-11.23,5.19-20.22c-3.39-0.84-5.79-2.52-6.8-3.84c-1.24-1.62-0.55-2.65-0.3-2.93
		c1.4-1.6,5.29-0.09,8.67,1.73c2.98-9.5,5.88-18.13,6.13-18.87c0.14-0.42,0.52-0.71,0.99-0.68c0.45,0.02,0.82,0.33,0.93,0.76
		l4.81,19.74c1.22-0.26,2.13,0.1,2.73,0.52C712.925-84.077,711.355-65.687,711.155-63.607z M722.645-111.107
		c-2.87-2.86-13.71-5.93-25.29-5.93c-9.7,0-17.14,2.11-20.97,5.93c-10.09,10.1-11.91,34.34,0,46.25c5.81,5.81,14.27,9.14,23.2,9.14
		c8.84,0,17.25-3.33,23.06-9.14C735.105-77.317,728.145-105.607,722.645-111.107z M711.155-63.607c-0.04,0.49-0.43,0.87-0.92,0.91
		h-0.07c-0.46,0-0.87-0.31-0.97-0.77l-5.32-21.82c-4.17,1.79-7.93,2.13-11.05,1.73c-2.85,9.27-5.17,17.58-5.17,19.86
		c0,0.55-0.45,1-1,1c-0.56,0-1-0.45-1-1c0-2.55,2.43-11.23,5.19-20.22c-3.39-0.84-5.79-2.52-6.8-3.84c-1.24-1.62-0.55-2.65-0.3-2.93
		c1.4-1.6,5.29-0.09,8.67,1.73c2.98-9.5,5.88-18.13,6.13-18.87c0.14-0.42,0.52-0.71,0.99-0.68c0.45,0.02,0.82,0.33,0.93,0.76
		l4.81,19.74c1.22-0.26,2.13,0.1,2.73,0.52C712.925-84.077,711.355-65.687,711.155-63.607z M722.645-111.107
		c-2.87-2.86-13.71-5.93-25.29-5.93c-9.7,0-17.14,2.11-20.97,5.93c-10.09,10.1-11.91,34.34,0,46.25c5.81,5.81,14.27,9.14,23.2,9.14
		c8.84,0,17.25-3.33,23.06-9.14C735.105-77.317,728.145-105.607,722.645-111.107z M711.155-63.607c-0.04,0.49-0.43,0.87-0.92,0.91
		h-0.07c-0.46,0-0.87-0.31-0.97-0.77l-5.32-21.82c-4.17,1.79-7.93,2.13-11.05,1.73c-2.85,9.27-5.17,17.58-5.17,19.86
		c0,0.55-0.45,1-1,1c-0.56,0-1-0.45-1-1c0-2.55,2.43-11.23,5.19-20.22c-3.39-0.84-5.79-2.52-6.8-3.84c-1.24-1.62-0.55-2.65-0.3-2.93
		c1.4-1.6,5.29-0.09,8.67,1.73c2.98-9.5,5.88-18.13,6.13-18.87c0.14-0.42,0.52-0.71,0.99-0.68c0.45,0.02,0.82,0.33,0.93,0.76
		l4.81,19.74c1.22-0.26,2.13,0.1,2.73,0.52C712.925-84.077,711.355-65.687,711.155-63.607z M722.645-111.107
		c-2.87-2.86-13.71-5.93-25.29-5.93c-9.7,0-17.14,2.11-20.97,5.93c-10.09,10.1-11.91,34.34,0,46.25c5.81,5.81,14.27,9.14,23.2,9.14
		c8.84,0,17.25-3.33,23.06-9.14C735.105-77.317,728.145-105.607,722.645-111.107z M711.155-63.607c-0.04,0.49-0.43,0.87-0.92,0.91
		h-0.07c-0.46,0-0.87-0.31-0.97-0.77l-5.32-21.82c-4.17,1.79-7.93,2.13-11.05,1.73c-2.85,9.27-5.17,17.58-5.17,19.86
		c0,0.55-0.45,1-1,1c-0.56,0-1-0.45-1-1c0-2.55,2.43-11.23,5.19-20.22c-3.39-0.84-5.79-2.52-6.8-3.84c-1.24-1.62-0.55-2.65-0.3-2.93
		c1.4-1.6,5.29-0.09,8.67,1.73c2.98-9.5,5.88-18.13,6.13-18.87c0.14-0.42,0.52-0.71,0.99-0.68c0.45,0.02,0.82,0.33,0.93,0.76
		l4.81,19.74c1.22-0.26,2.13,0.1,2.73,0.52C712.925-84.077,711.355-65.687,711.155-63.607z M697.295-125.207
		c-37.6,0-37.27-2.9-37.27,37.26c0,40.17,4.43,40.46,40.46,40.46c36.03,0,37.26-0.23,37.26-37.27
		C737.745-121.797,734.895-125.207,697.295-125.207z M724.055-63.437c-6.18,6.18-15.1,9.72-24.47,9.72
		c-9.46,0-18.43-3.54-24.61-9.72c-12.64-12.64-10.72-38.37,0-49.09c5.67-5.66,16.45-6.51,22.38-6.51c11.32,0,23.05,2.86,26.7,6.51
		C730.065-106.507,737.555-76.937,724.055-63.437z M697.355-117.037c-9.7,0-17.14,2.11-20.97,5.93c-10.09,10.1-11.91,34.34,0,46.25
		c5.81,5.81,14.27,9.14,23.2,9.14c8.84,0,17.25-3.33,23.06-9.14c12.46-12.46,5.5-40.75,0-46.25
		C719.775-113.967,708.935-117.037,697.355-117.037z M711.155-63.607c-0.04,0.49-0.43,0.87-0.92,0.91h-0.07
		c-0.46,0-0.87-0.31-0.97-0.77l-5.32-21.82c-4.17,1.79-7.93,2.13-11.05,1.73c-2.85,9.27-5.17,17.58-5.17,19.86c0,0.55-0.45,1-1,1
		c-0.56,0-1-0.45-1-1c0-2.55,2.43-11.23,5.19-20.22c-3.39-0.84-5.79-2.52-6.8-3.84c-1.24-1.62-0.55-2.65-0.3-2.93
		c1.4-1.6,5.29-0.09,8.67,1.73c2.98-9.5,5.88-18.13,6.13-18.87c0.14-0.42,0.52-0.71,0.99-0.68c0.45,0.02,0.82,0.33,0.93,0.76
		l4.81,19.74c1.22-0.26,2.13,0.1,2.73,0.52C712.925-84.077,711.355-65.687,711.155-63.607z M722.645-111.107
		c-2.87-2.86-13.71-5.93-25.29-5.93c-9.7,0-17.14,2.11-20.97,5.93c-10.09,10.1-11.91,34.34,0,46.25c5.81,5.81,14.27,9.14,23.2,9.14
		c8.84,0,17.25-3.33,23.06-9.14C735.105-77.317,728.145-105.607,722.645-111.107z M711.155-63.607c-0.04,0.49-0.43,0.87-0.92,0.91
		h-0.07c-0.46,0-0.87-0.31-0.97-0.77l-5.32-21.82c-4.17,1.79-7.93,2.13-11.05,1.73c-2.85,9.27-5.17,17.58-5.17,19.86
		c0,0.55-0.45,1-1,1c-0.56,0-1-0.45-1-1c0-2.55,2.43-11.23,5.19-20.22c-3.39-0.84-5.79-2.52-6.8-3.84c-1.24-1.62-0.55-2.65-0.3-2.93
		c1.4-1.6,5.29-0.09,8.67,1.73c2.98-9.5,5.88-18.13,6.13-18.87c0.14-0.42,0.52-0.71,0.99-0.68c0.45,0.02,0.82,0.33,0.93,0.76
		l4.81,19.74c1.22-0.26,2.13,0.1,2.73,0.52C712.925-84.077,711.355-65.687,711.155-63.607z M722.645-111.107
		c-2.87-2.86-13.71-5.93-25.29-5.93c-9.7,0-17.14,2.11-20.97,5.93c-10.09,10.1-11.91,34.34,0,46.25c5.81,5.81,14.27,9.14,23.2,9.14
		c8.84,0,17.25-3.33,23.06-9.14C735.105-77.317,728.145-105.607,722.645-111.107z M711.155-63.607c-0.04,0.49-0.43,0.87-0.92,0.91
		h-0.07c-0.46,0-0.87-0.31-0.97-0.77l-5.32-21.82c-4.17,1.79-7.93,2.13-11.05,1.73c-2.85,9.27-5.17,17.58-5.17,19.86
		c0,0.55-0.45,1-1,1c-0.56,0-1-0.45-1-1c0-2.55,2.43-11.23,5.19-20.22c-3.39-0.84-5.79-2.52-6.8-3.84c-1.24-1.62-0.55-2.65-0.3-2.93
		c1.4-1.6,5.29-0.09,8.67,1.73c2.98-9.5,5.88-18.13,6.13-18.87c0.14-0.42,0.52-0.71,0.99-0.68c0.45,0.02,0.82,0.33,0.93,0.76
		l4.81,19.74c1.22-0.26,2.13,0.1,2.73,0.52C712.925-84.077,711.355-65.687,711.155-63.607z M722.645-111.107
		c-2.87-2.86-13.71-5.93-25.29-5.93c-9.7,0-17.14,2.11-20.97,5.93c-10.09,10.1-11.91,34.34,0,46.25c5.81,5.81,14.27,9.14,23.2,9.14
		c8.84,0,17.25-3.33,23.06-9.14C735.105-77.317,728.145-105.607,722.645-111.107z M711.155-63.607c-0.04,0.49-0.43,0.87-0.92,0.91
		h-0.07c-0.46,0-0.87-0.31-0.97-0.77l-5.32-21.82c-4.17,1.79-7.93,2.13-11.05,1.73c-2.85,9.27-5.17,17.58-5.17,19.86
		c0,0.55-0.45,1-1,1c-0.56,0-1-0.45-1-1c0-2.55,2.43-11.23,5.19-20.22c-3.39-0.84-5.79-2.52-6.8-3.84c-1.24-1.62-0.55-2.65-0.3-2.93
		c1.4-1.6,5.29-0.09,8.67,1.73c2.98-9.5,5.88-18.13,6.13-18.87c0.14-0.42,0.52-0.71,0.99-0.68c0.45,0.02,0.82,0.33,0.93,0.76
		l4.81,19.74c1.22-0.26,2.13,0.1,2.73,0.52C712.925-84.077,711.355-65.687,711.155-63.607z M722.645-111.107
		c-2.87-2.86-13.71-5.93-25.29-5.93c-9.7,0-17.14,2.11-20.97,5.93c-10.09,10.1-11.91,34.34,0,46.25c5.81,5.81,14.27,9.14,23.2,9.14
		c8.84,0,17.25-3.33,23.06-9.14C735.105-77.317,728.145-105.607,722.645-111.107z M711.155-63.607c-0.04,0.49-0.43,0.87-0.92,0.91
		h-0.07c-0.46,0-0.87-0.31-0.97-0.77l-5.32-21.82c-4.17,1.79-7.93,2.13-11.05,1.73c-2.85,9.27-5.17,17.58-5.17,19.86
		c0,0.55-0.45,1-1,1c-0.56,0-1-0.45-1-1c0-2.55,2.43-11.23,5.19-20.22c-3.39-0.84-5.79-2.52-6.8-3.84c-1.24-1.62-0.55-2.65-0.3-2.93
		c1.4-1.6,5.29-0.09,8.67,1.73c2.98-9.5,5.88-18.13,6.13-18.87c0.14-0.42,0.52-0.71,0.99-0.68c0.45,0.02,0.82,0.33,0.93,0.76
		l4.81,19.74c1.22-0.26,2.13,0.1,2.73,0.52C712.925-84.077,711.355-65.687,711.155-63.607z M722.645-111.107
		c-2.87-2.86-13.71-5.93-25.29-5.93c-9.7,0-17.14,2.11-20.97,5.93c-10.09,10.1-11.91,34.34,0,46.25c5.81,5.81,14.27,9.14,23.2,9.14
		c8.84,0,17.25-3.33,23.06-9.14C735.105-77.317,728.145-105.607,722.645-111.107z M711.155-63.607c-0.04,0.49-0.43,0.87-0.92,0.91
		h-0.07c-0.46,0-0.87-0.31-0.97-0.77l-5.32-21.82c-4.17,1.79-7.93,2.13-11.05,1.73c-2.85,9.27-5.17,17.58-5.17,19.86
		c0,0.55-0.45,1-1,1c-0.56,0-1-0.45-1-1c0-2.55,2.43-11.23,5.19-20.22c-3.39-0.84-5.79-2.52-6.8-3.84c-1.24-1.62-0.55-2.65-0.3-2.93
		c1.4-1.6,5.29-0.09,8.67,1.73c2.98-9.5,5.88-18.13,6.13-18.87c0.14-0.42,0.52-0.71,0.99-0.68c0.45,0.02,0.82,0.33,0.93,0.76
		l4.81,19.74c1.22-0.26,2.13,0.1,2.73,0.52C712.925-84.077,711.355-65.687,711.155-63.607z M722.645-111.107
		c-2.87-2.86-13.71-5.93-25.29-5.93c-9.7,0-17.14,2.11-20.97,5.93c-10.09,10.1-11.91,34.34,0,46.25c5.81,5.81,14.27,9.14,23.2,9.14
		c8.84,0,17.25-3.33,23.06-9.14C735.105-77.317,728.145-105.607,722.645-111.107z M711.155-63.607c-0.04,0.49-0.43,0.87-0.92,0.91
		h-0.07c-0.46,0-0.87-0.31-0.97-0.77l-5.32-21.82c-4.17,1.79-7.93,2.13-11.05,1.73c-2.85,9.27-5.17,17.58-5.17,19.86
		c0,0.55-0.45,1-1,1c-0.56,0-1-0.45-1-1c0-2.55,2.43-11.23,5.19-20.22c-3.39-0.84-5.79-2.52-6.8-3.84c-1.24-1.62-0.55-2.65-0.3-2.93
		c1.4-1.6,5.29-0.09,8.67,1.73c2.98-9.5,5.88-18.13,6.13-18.87c0.14-0.42,0.52-0.71,0.99-0.68c0.45,0.02,0.82,0.33,0.93,0.76
		l4.81,19.74c1.22-0.26,2.13,0.1,2.73,0.52C712.925-84.077,711.355-65.687,711.155-63.607z M722.645-111.107
		c-2.87-2.86-13.71-5.93-25.29-5.93c-9.7,0-17.14,2.11-20.97,5.93c-10.09,10.1-11.91,34.34,0,46.25c5.81,5.81,14.27,9.14,23.2,9.14
		c8.84,0,17.25-3.33,23.06-9.14C735.105-77.317,728.145-105.607,722.645-111.107z M711.155-63.607c-0.04,0.49-0.43,0.87-0.92,0.91
		h-0.07c-0.46,0-0.87-0.31-0.97-0.77l-5.32-21.82c-4.17,1.79-7.93,2.13-11.05,1.73c-2.85,9.27-5.17,17.58-5.17,19.86
		c0,0.55-0.45,1-1,1c-0.56,0-1-0.45-1-1c0-2.55,2.43-11.23,5.19-20.22c-3.39-0.84-5.79-2.52-6.8-3.84c-1.24-1.62-0.55-2.65-0.3-2.93
		c1.4-1.6,5.29-0.09,8.67,1.73c2.98-9.5,5.88-18.13,6.13-18.87c0.14-0.42,0.52-0.71,0.99-0.68c0.45,0.02,0.82,0.33,0.93,0.76
		l4.81,19.74c1.22-0.26,2.13,0.1,2.73,0.52C712.925-84.077,711.355-65.687,711.155-63.607z M722.645-111.107
		c-2.87-2.86-13.71-5.93-25.29-5.93c-9.7,0-17.14,2.11-20.97,5.93c-10.09,10.1-11.91,34.34,0,46.25c5.81,5.81,14.27,9.14,23.2,9.14
		c8.84,0,17.25-3.33,23.06-9.14C735.105-77.317,728.145-105.607,722.645-111.107z M711.155-63.607c-0.04,0.49-0.43,0.87-0.92,0.91
		h-0.07c-0.46,0-0.87-0.31-0.97-0.77l-5.32-21.82c-4.17,1.79-7.93,2.13-11.05,1.73c-2.85,9.27-5.17,17.58-5.17,19.86
		c0,0.55-0.45,1-1,1c-0.56,0-1-0.45-1-1c0-2.55,2.43-11.23,5.19-20.22c-3.39-0.84-5.79-2.52-6.8-3.84c-1.24-1.62-0.55-2.65-0.3-2.93
		c1.4-1.6,5.29-0.09,8.67,1.73c2.98-9.5,5.88-18.13,6.13-18.87c0.14-0.42,0.52-0.71,0.99-0.68c0.45,0.02,0.82,0.33,0.93,0.76
		l4.81,19.74c1.22-0.26,2.13,0.1,2.73,0.52C712.925-84.077,711.355-65.687,711.155-63.607z M722.645-111.107
		c-2.87-2.86-13.71-5.93-25.29-5.93c-9.7,0-17.14,2.11-20.97,5.93c-10.09,10.1-11.91,34.34,0,46.25c5.81,5.81,14.27,9.14,23.2,9.14
		c8.84,0,17.25-3.33,23.06-9.14C735.105-77.317,728.145-105.607,722.645-111.107z M711.155-63.607c-0.04,0.49-0.43,0.87-0.92,0.91
		h-0.07c-0.46,0-0.87-0.31-0.97-0.77l-5.32-21.82c-4.17,1.79-7.93,2.13-11.05,1.73c-2.85,9.27-5.17,17.58-5.17,19.86
		c0,0.55-0.45,1-1,1c-0.56,0-1-0.45-1-1c0-2.55,2.43-11.23,5.19-20.22c-3.39-0.84-5.79-2.52-6.8-3.84c-1.24-1.62-0.55-2.65-0.3-2.93
		c1.4-1.6,5.29-0.09,8.67,1.73c2.98-9.5,5.88-18.13,6.13-18.87c0.14-0.42,0.52-0.71,0.99-0.68c0.45,0.02,0.82,0.33,0.93,0.76
		l4.81,19.74c1.22-0.26,2.13,0.1,2.73,0.52C712.925-84.077,711.355-65.687,711.155-63.607z M722.645-111.107
		c-2.87-2.86-13.71-5.93-25.29-5.93c-9.7,0-17.14,2.11-20.97,5.93c-10.09,10.1-11.91,34.34,0,46.25c5.81,5.81,14.27,9.14,23.2,9.14
		c8.84,0,17.25-3.33,23.06-9.14C735.105-77.317,728.145-105.607,722.645-111.107z M711.155-63.607c-0.04,0.49-0.43,0.87-0.92,0.91
		h-0.07c-0.46,0-0.87-0.31-0.97-0.77l-5.32-21.82c-4.17,1.79-7.93,2.13-11.05,1.73c-2.85,9.27-5.17,17.58-5.17,19.86
		c0,0.55-0.45,1-1,1c-0.56,0-1-0.45-1-1c0-2.55,2.43-11.23,5.19-20.22c-3.39-0.84-5.79-2.52-6.8-3.84c-1.24-1.62-0.55-2.65-0.3-2.93
		c1.4-1.6,5.29-0.09,8.67,1.73c2.98-9.5,5.88-18.13,6.13-18.87c0.14-0.42,0.52-0.71,0.99-0.68c0.45,0.02,0.82,0.33,0.93,0.76
		l4.81,19.74c1.22-0.26,2.13,0.1,2.73,0.52C712.925-84.077,711.355-65.687,711.155-63.607z"/>
</g>
</svg>
