<?xml version="1.0" encoding="utf-8"?>
<!-- Generator: Adobe Illustrator 17.0.0, SVG Export Plug-In . SVG Version: 6.00 Build 0)  -->
<!DOCTYPE svg PUBLIC "-//W3C//DTD SVG 1.1//EN" "http://www.w3.org/Graphics/SVG/1.1/DTD/svg11.dtd">
<svg version="1.1" id="Layer_1" xmlns="http://www.w3.org/2000/svg" xmlns:xlink="http://www.w3.org/1999/xlink" x="0px" y="0px"
	 width="45px" height="45px" viewBox="0 0 45 45" enable-background="new 0 0 45 45" xml:space="preserve">
<g display="none">
	<path display="inline" fill="#653C97" d="M24.484-54.459c6.701,0,10.881,4.445,10.881,10.98c0,5.805-3.615,8.824-6.635,8.824
		c-1.791,0-3.185-0.863-3.416-2.521h-0.066c-1.095,1.294-2.588,2.256-4.048,2.256c-2.255,0-3.98-1.659-3.98-4.678
		c0-3.549,2.488-7.696,6.369-7.696c1.128,0,2.057,0.498,2.654,1.592h0.066l0.364-1.327h1.825l-1.294,6.635
		c-0.664,2.62-0.033,3.881,1.791,3.881c2.09,0,4.445-2.554,4.445-6.866c0-5.341-3.151-9.255-9.188-9.255
		c-5.905,0-11.61,5.009-11.61,12.771c0,6.469,4.246,10.151,9.885,10.151c2.023,0,3.882-0.631,5.374-1.493l0.729,1.626
		c-1.924,1.161-4.014,1.691-6.303,1.691c-6.501,0-11.677-4.146-11.677-11.876C10.651-48.654,17.054-54.459,24.484-54.459z
		 M21.731-36.777c0.929,0,1.924-0.598,3.052-1.958l0.962-5.274c-0.63-1.028-1.228-1.394-2.123-1.394
		c-2.62,0-4.213,3.151-4.213,5.639C19.409-37.64,20.404-36.777,21.731-36.777z"/>
</g>
<circle display="none" opacity="0.7" fill="none" stroke="#57BE8C" stroke-width="2.5" stroke-miterlimit="10" cx="21.269" cy="-46.324" r="18"/>
<path fill="#653C97" d="M25.49-46.823l-1.79,9.98c-2.31,2.66-4.38,3.87-6.23,3.87c-2.6,0-4.62-1.56-4.62-5.95
	c0-4.84,3.18-10.73,8.37-10.73C22.95-49.653,24.1-48.953,25.49-46.823z"/>
<path fill="#653C97" d="M42.44-61.783c-0.05-0.02-0.09-0.03-0.14-0.04c-0.05-0.01-0.1-0.02-0.16-0.02H31.45
	c5.72,2.9,9.04,8.73,9.04,16.29c0,5.68-1.95,9.8-4.52,12.26c-0.37,0.36-0.74,0.68-1.13,0.96c-0.01,0-0.01,0-0.01,0
	c-0.37,0.28-0.74,0.52-1.13,0.73c-0.51,0.27-1.04,0.5-1.56,0.67c-0.31,0.11-0.62,0.19-0.93,0.24c-0.46,0.09-0.92,0.14-1.37,0.14
	c-0.57,0-1.12-0.05-1.62-0.15c-0.14-0.03-0.27-0.06-0.4-0.09c-0.26-0.07-0.51-0.15-0.75-0.25c-0.13-0.04-0.25-0.1-0.36-0.16
	c-0.17-0.08-0.34-0.18-0.49-0.28c-0.14-0.09-0.27-0.18-0.39-0.29c-0.11-0.09-0.21-0.19-0.31-0.29c-0.68-0.7-1.13-1.65-1.24-2.87
	h-0.12c-0.76,0.85-1.59,1.65-2.46,2.29c0,0,0,0-0.01,0c-0.28,0.23-0.57,0.42-0.87,0.6c-0.36,0.21-0.73,0.41-1.1,0.57
	c-0.25,0.11-0.5,0.2-0.75,0.28c-0.13,0.04-0.26,0.08-0.39,0.11c-0.01,0-0.02,0-0.02,0c-0.16,0.05-0.32,0.08-0.49,0.1
	c-0.32,0.05-0.65,0.08-0.98,0.08c-0.44,0-0.86-0.04-1.28-0.12c-0.37-0.07-0.73-0.17-1.08-0.31c-0.46-0.18-0.89-0.41-1.29-0.69
	c-0.22-0.15-0.42-0.32-0.62-0.51c-0.18-0.16-0.35-0.34-0.5-0.53c-1.1-1.32-1.78-3.2-1.78-5.68c0-2.8,0.98-6.05,2.81-8.6
	c0.12-0.17,0.25-0.34,0.38-0.5c0.14-0.17,0.28-0.34,0.43-0.51v-0.01c0.35-0.38,0.7-0.73,1.08-1.06c0.01,0,0.01,0,0.01,0
	c0.39-0.34,0.81-0.65,1.25-0.93h0.01c0.59-0.36,1.22-0.67,1.89-0.9c0.34-0.11,0.68-0.21,1.04-0.28c0.58-0.13,1.18-0.19,1.81-0.19
	c0.39,0,0.76,0.03,1.11,0.1c0.58,0.11,1.11,0.3,1.6,0.57c0.82,0.45,1.51,1.16,2.1,2.1h0.12l0.52-2.31h1.96l-2.08,10.9
	c-1.04,4.12-0.48,6.57,1.51,7.44c0.19,0.08,0.4,0.15,0.62,0.2c0.4,0.1,0.83,0.15,1.31,0.15c0.24,0,0.48-0.02,0.73-0.05
	c0.66-0.11,1.34-0.35,2.01-0.73c0.22-0.13,0.44-0.27,0.66-0.43c0.44-0.31,0.87-0.68,1.27-1.11v-0.01c2.05-2.14,3.61-5.72,3.61-10.48
	c0-5.08-1.6-9.26-4.51-12.13c-0.67-0.66-1.41-1.26-2.21-1.78c-0.19-0.11-0.38-0.23-0.58-0.35c-0.57-0.34-1.18-0.64-1.82-0.9
	c-1.07-0.43-2.22-0.76-3.45-0.98c-1.13-0.2-2.31-0.3-3.56-0.3c-0.68,0-1.32-0.01-1.92-0.02H2.8c-0.05,0-0.09,0-0.13,0.02
	c-0.05,0.01-0.1,0.02-0.14,0.04C2.22-61.653,2-61.353,2-61.013v39.34c0,0.34,0.22,0.64,0.53,0.77c0.04,0.02,0.09,0.03,0.14,0.04
	c0.04,0.02,0.08,0.02,0.13,0.02h39.34c0.06,0,0.11-0.01,0.16-0.02s0.09-0.02,0.14-0.04c0.32-0.11,0.56-0.42,0.56-0.77v-39.34
	C43-61.363,42.76-61.673,42.44-61.783z"/>
<path fill="#653C97" d="M-28.21-63.843h-39.33c-1.55,0-2.84,1.28-2.84,2.83v39.34c0,1.55,1.29,2.83,2.84,2.83h39.33
	c1.55,0,2.83-1.28,2.83-2.83v-39.34C-25.38-62.563-26.66-63.843-28.21-63.843z M-27.38-21.673c0,0.45-0.38,0.83-0.83,0.83h-39.33
	c-0.45,0-0.84-0.38-0.84-0.83v-39.34c0-0.45,0.39-0.83,0.84-0.83h39.33c0.45,0,0.83,0.38,0.83,0.83V-21.673z"/>
<path fill="#FFFFFF" d="M42.17-0.003H2.85c-1.56,0-2.84,1.28-2.84,2.83v39.34c0,1.55,1.28,2.83,2.84,2.83h39.32
	c1.56,0,2.84-1.28,2.84-2.83V2.827C45.01,1.277,43.73-0.003,42.17-0.003z"/>
<path fill="#653C97" d="M-38.92-61.843c-2.57-1.3-5.63-2-9.09-2c-11.39,0-10.85,1.77-2.08,2c0.6,0.01,1.24,0.02,1.92,0.02
	c9.97,0,16.09,6.52,16.09,16.44c0,8.14-4.56,12.81-8.25,12.81c-3.51,0-4.78-2.54-3.46-7.79l2.07-10.9h-1.95l-0.53,2.31h-0.12
	c-1.15-1.85-2.71-2.77-4.77-2.77c-6.82,0-10.75,7.38-10.75,12.98c0,5.19,3.01,7.84,6.58,7.84c2.67,0,5.03-1.78,7.04-4.03h0.13
	c0.29,3,2.54,4.38,5.58,4.38c4.79,0,10.62-5.19,10.62-15C-29.89-53.113-33.21-58.943-38.92-61.843z M-46.67-36.843
	c-2.31,2.66-4.38,3.87-6.24,3.87c-2.6,0-4.62-1.56-4.62-5.95c0-4.84,3.19-10.73,8.37-10.73c1.74,0,2.88,0.7,4.27,2.83L-46.67-36.843
	z"/>
<path fill="#FFFFFF" d="M42.14-63.843H2.8c-1.55,0-2.83,1.28-2.83,2.83v39.34c0,1.55,1.28,2.83,2.83,2.83h39.34
	c1.55,0,2.83-1.28,2.83-2.83v-39.34C44.97-62.563,43.69-63.843,42.14-63.843z M42.3-20.863c-0.05,0.01-0.1,0.02-0.16,0.02H2.8
	c-0.05,0-0.09,0-0.13-0.02c-0.05-0.01-0.1-0.02-0.14-0.04c-0.32-0.11-0.56-0.42-0.56-0.77v-39.34c0-0.35,0.24-0.66,0.56-0.77
	c0.04-0.02,0.09-0.03,0.14-0.04c0.04-0.02,0.08-0.02,0.13-0.02h17.45c0.6,0.01,1.24,0.02,1.92,0.02c1.25,0,2.43,0.1,3.56,0.3
	c1.23,0.22,2.38,0.55,3.45,0.98c0.64,0.27,1.25,0.57,1.82,0.9c0.2,0.12,0.39,0.24,0.58,0.35c0.8,0.52,1.54,1.12,2.21,1.78
	c2.88,2.88,4.48,7.07,4.48,12.13c0,4.76-1.55,8.33-3.58,10.48v0.01c-0.41,0.42-0.84,0.79-1.27,1.11c-0.22,0.16-0.44,0.3-0.66,0.43
	c-0.67,0.38-1.35,0.62-2.01,0.73c-0.25,0.03-0.49,0.05-0.73,0.05c-0.48,0-0.91-0.05-1.31-0.15c-0.22-0.05-0.43-0.12-0.62-0.2
	c-2.01-0.84-2.58-3.3-1.54-7.44l2.08-10.9h-1.96l-0.52,2.31h-0.12c-0.58-0.93-1.27-1.63-2.07-2.1c-0.49-0.27-1.02-0.46-1.6-0.57
	c-0.35-0.07-0.72-0.1-1.11-0.1c-0.63,0-1.23,0.06-1.81,0.19c-0.36,0.07-0.7,0.17-1.04,0.28c-0.67,0.22-1.3,0.53-1.89,0.9H16.5
	c-0.44,0.27-0.86,0.58-1.25,0.93c0,0,0,0-0.01,0c-0.38,0.33-0.73,0.68-1.08,1.06v0.01c-0.15,0.17-0.29,0.34-0.43,0.51
	c-0.13,0.16-0.26,0.33-0.38,0.5c-1.85,2.55-2.84,5.8-2.84,8.6c0,2.48,0.69,4.38,1.81,5.68c0.15,0.19,0.32,0.37,0.5,0.53
	c0.2,0.19,0.4,0.36,0.62,0.51c0.4,0.28,0.83,0.51,1.29,0.69c0.35,0.14,0.71,0.24,1.08,0.31c0.42,0.08,0.84,0.12,1.28,0.12
	c0.33,0,0.66-0.03,0.98-0.08c0.17-0.03,0.33-0.06,0.49-0.1c0,0,0.01,0,0.02,0c0.13-0.03,0.26-0.07,0.39-0.11
	c0.25-0.08,0.5-0.17,0.75-0.28c0.37-0.16,0.74-0.36,1.1-0.57c0.3-0.18,0.59-0.39,0.87-0.6c0.01,0,0.01,0,0.01,0
	c0.86-0.66,1.67-1.45,2.43-2.29h0.12c0.12,1.22,0.56,2.17,1.27,2.87c0.1,0.1,0.2,0.2,0.31,0.29c0.12,0.11,0.25,0.2,0.39,0.29
	c0.15,0.1,0.32,0.2,0.49,0.28c0.11,0.06,0.23,0.12,0.36,0.16c0.24,0.1,0.49,0.18,0.75,0.25c0.13,0.03,0.26,0.06,0.4,0.09
	c0.5,0.1,1.05,0.15,1.62,0.15c0.45,0,0.91-0.05,1.37-0.14c0.31-0.06,0.62-0.14,0.93-0.24c0.52-0.17,1.05-0.4,1.56-0.67
	c0.38-0.22,0.76-0.46,1.13-0.73c0,0,0,0,0.01,0c0.38-0.29,0.76-0.61,1.13-0.96c2.55-2.49,4.49-6.61,4.49-12.26
	c0-7.56-3.32-13.39-9.04-16.29h10.72c0.06,0,0.11,0.01,0.16,0.02c0.05,0.01,0.09,0.02,0.14,0.04c0.31,0.13,0.53,0.43,0.53,0.77
	v39.34c0,0.34-0.22,0.64-0.53,0.77C42.39-20.883,42.35-20.873,42.3-20.863z M15.66-46.853c0.1-0.12,0.2-0.24,0.31-0.35
	c0.09-0.12,0.2-0.23,0.32-0.33c0.11-0.11,0.22-0.22,0.34-0.32c0.11-0.11,0.23-0.2,0.35-0.29c0.12-0.1,0.24-0.19,0.36-0.27
	c0.12-0.09,0.25-0.18,0.38-0.25c0.12-0.08,0.26-0.15,0.39-0.22c0.13-0.07,0.27-0.14,0.41-0.2c0.14-0.06,0.28-0.12,0.42-0.17
	c0.28-0.1,0.56-0.19,0.85-0.25c0.01,0,0.01,0,0.02,0c0.12-0.03,0.25-0.06,0.38-0.07c0.04,0,0.08-0.01,0.12-0.01
	c0.02-0.01,0.04-0.01,0.06-0.01c0.09-0.02,0.18-0.03,0.27-0.03c0.18-0.02,0.36-0.03,0.55-0.03c0.43,0,0.83,0.04,1.21,0.14
	c0.09,0.03,0.18,0.05,0.27,0.09c0.99,0.35,1.83,1.14,2.79,2.6l-1.79,9.98c-1.77,2.04-3.4,3.22-4.89,3.67
	c-0.11,0.03-0.22,0.06-0.32,0.08c-0.11,0.02-0.22,0.04-0.32,0.06c-0.23,0.04-0.47,0.06-0.7,0.06c-0.31,0-0.61-0.02-0.91-0.08
	c-0.13-0.02-0.27-0.05-0.39-0.08c-0.09-0.02-0.18-0.04-0.26-0.08c-0.1-0.02-0.2-0.06-0.3-0.1c-0.12-0.04-0.23-0.09-0.33-0.16
	c-0.13-0.07-0.26-0.14-0.38-0.23c-0.13-0.07-0.24-0.16-0.36-0.27c-0.01,0-0.02-0.01-0.03-0.02c-0.11-0.1-0.21-0.2-0.3-0.31
	c-0.85-0.92-1.36-2.41-1.36-4.62c0-1.52,0.31-3.13,0.92-4.63c0.11-0.3,0.25-0.6,0.39-0.89c0.12-0.29,0.27-0.57,0.45-0.85
	c0.12-0.24,0.27-0.47,0.43-0.69c0.11-0.17,0.23-0.34,0.36-0.5C15.46-46.613,15.56-46.733,15.66-46.853z"/>
<path fill="#653C97" d="M25.49,17.017l-1.79,9.98c-2.04,2.35-3.89,3.56-5.56,3.81c-0.23,0.04-0.47,0.06-0.7,0.06
	c-0.31,0-0.61-0.02-0.91-0.08c-2.13-0.35-3.68-2.03-3.68-5.87c0-4.38,2.6-9.62,6.94-10.58c0.44-0.1,0.91-0.15,1.4-0.15
	c0.43,0,0.83,0.04,1.21,0.14c0.09,0.03,0.18,0.05,0.27,0.09C23.68,14.757,24.53,15.547,25.49,17.017z"/>
<path fill="#653C97" d="M41,2.127c-0.26-0.09-0.54-0.13-0.83-0.13h-8.72c1.11,0.56,2.12,1.23,3.04,2c3.84,3.22,6,8.19,6,14.29
	c0,8.29-4.16,13.28-8.35,14.62c-0.31,0.11-0.62,0.19-0.93,0.24c-0.46,0.09-0.92,0.14-1.37,0.14c-0.57,0-1.12-0.05-1.62-0.15
	c-2.18-0.43-3.71-1.8-3.94-4.23h-0.12c-1.64,1.83-3.51,3.35-5.58,3.85c-0.01,0-0.02,0-0.02,0c-0.16,0.05-0.32,0.08-0.49,0.1
	c-0.32,0.05-0.65,0.08-0.98,0.08c-0.44,0-0.86-0.04-1.28-0.12c-2.97-0.58-5.27-3.18-5.27-7.72c0-5.08,3.23-11.61,8.9-12.79
	c0.58-0.13,1.18-0.19,1.81-0.19c0.39,0,0.76,0.03,1.11,0.1c1.55,0.27,2.76,1.16,3.7,2.67h0.12l0.52-2.31h1.96l-2.08,10.9
	c-1.14,4.52-0.35,7.03,2.13,7.64c0.4,0.1,0.83,0.15,1.31,0.15c0.24,0,0.48-0.02,0.73-0.05c3.54-0.55,7.55-5.13,7.55-12.76
	c0-6.69-2.78-11.83-7.65-14.46c-1.46-0.8-3.11-1.37-4.92-1.68c-1.13-0.2-2.31-0.3-3.56-0.3c-0.68,0-1.32-0.01-1.92-0.02H4.85
	c-0.29,0-0.57,0.04-0.84,0.14c-0.89,0.27-1.59,0.97-1.87,1.86c-0.08,0.26-0.13,0.54-0.13,0.83v35.34c0,1.55,1.29,2.83,2.84,2.83
	h35.32c1.26,0,2.34-0.84,2.7-2c0.09-0.26,0.13-0.54,0.13-0.83V4.827C43,3.567,42.16,2.487,41,2.127z"/>
<path fill="#653C97" d="M-28.22-0.003h-39.32c-1.56,0-2.84,1.28-2.84,2.83v39.34c0,1.55,1.28,2.83,2.84,2.83h39.32
	c1.56,0,2.84-1.28,2.84-2.83V2.827C-25.38,1.277-26.66-0.003-28.22-0.003z M-27.39,40.167c0,0.29-0.04,0.57-0.13,0.83
	c-0.36,1.16-1.44,2-2.7,2h-35.32c-1.55,0-2.84-1.28-2.84-2.83V4.827c0-0.29,0.05-0.57,0.13-0.83c0.28-0.89,0.98-1.59,1.87-1.86
	c0.27-0.1,0.55-0.14,0.84-0.14h15.4c0.6,0.01,1.24,0.02,1.92,0.02c1.25,0,2.43,0.1,3.56,0.3c1.81,0.31,3.46,0.88,4.92,1.68
	c4.87,2.63,7.65,7.77,7.65,14.46c0,7.63-4.01,12.21-7.55,12.76c-0.25,0.03-0.49,0.05-0.73,0.05c-0.48,0-0.91-0.05-1.31-0.15
	c-2.48-0.61-3.27-3.12-2.13-7.64l2.08-10.9h-1.96l-0.52,2.31h-0.12c-0.94-1.51-2.15-2.4-3.7-2.67c-0.35-0.07-0.72-0.1-1.11-0.1
	c-0.63,0-1.23,0.06-1.81,0.19c-5.67,1.18-8.9,7.71-8.9,12.79c0,4.54,2.3,7.14,5.27,7.72c0.42,0.08,0.84,0.12,1.28,0.12
	c0.33,0,0.66-0.03,0.98-0.08c0.17-0.02,0.33-0.05,0.49-0.1c0,0,0.01,0,0.02,0c2.07-0.5,3.94-2.02,5.58-3.85h0.12
	c0.23,2.43,1.76,3.8,3.94,4.23c0.5,0.1,1.05,0.15,1.62,0.15c0.45,0,0.91-0.05,1.37-0.14c0.31-0.05,0.62-0.13,0.93-0.24
	c4.19-1.34,8.35-6.33,8.35-14.62c0-6.1-2.16-11.07-6-14.29c-0.92-0.77-1.93-1.44-3.04-2h8.72c0.29,0,0.57,0.04,0.83,0.13
	c1.16,0.36,2,1.44,2,2.7V40.167z M-44.9,17.017l-1.79,9.98c-2.04,2.35-3.89,3.56-5.56,3.81c-0.23,0.04-0.47,0.06-0.7,0.06
	c-0.31,0-0.61-0.02-0.91-0.08c-2.13-0.35-3.68-2.03-3.68-5.87c0-4.38,2.6-9.62,6.94-10.58c0.44-0.1,0.91-0.15,1.4-0.15
	c0.43,0,0.83,0.04,1.21,0.14c0.09,0.03,0.18,0.05,0.27,0.09C-46.71,14.757-45.86,15.547-44.9,17.017z"/>
<g>
	<path fill="#653C97" d="M25.49,156.851l-1.79,9.98c-2.04,2.35-3.89,3.56-5.56,3.81c-0.23,0.04-0.47,0.06-0.7,0.06
		c-0.31,0-0.61-0.02-0.91-0.08c-2.13-0.35-3.68-2.03-3.68-5.87c0-4.38,2.6-9.62,6.94-10.58c0.44-0.1,0.91-0.15,1.4-0.15
		c0.43,0,0.83,0.04,1.21,0.14c0.09,0.03,0.18,0.05,0.27,0.09C23.68,154.591,24.53,155.381,25.49,156.851z"/>
	<path fill="#653C97" d="M45,139.833v45H0v-45h24.781c1.99,0.34,5.059,1.31,6.659,2.19c5.35,2.89,8.4,8.53,8.4,15.87
		c0,8.38-4.4,13.4-8.29,14.01c-0.27,0.03-0.54,0.05-0.8,0.05c-0.53,0-1-0.05-1.44-0.16c-2.72-0.67-3.59-3.43-2.34-8.39l2.29-11.96
		h-2.15l-0.58,2.53H26.4c-1.03-1.65-2.36-2.63-4.06-2.93c-0.38-0.07-0.79-0.11-1.22-0.11c-0.69,0-1.35,0.07-1.98,0.21
		c-6.23,1.3-9.78,8.46-9.78,14.04c0,4.98,2.53,7.84,5.79,8.47c0.46,0.09,0.92,0.13,1.41,0.13c0.36,0,0.72-0.03,1.07-0.08
		c0.19-0.03,0.36-0.06,0.54-0.11c0,0,0.01,0,0.02,0c2.27-0.55,4.33-2.22,6.13-4.23h0.13c0.25,2.67,1.93,4.17,4.32,4.64
		c0.55,0.11,1.16,0.17,1.78,0.17c0.5,0,1-0.06,1.51-0.16c0.34-0.05,0.68-0.14,1.02-0.26c4.6-1.47,9.16-6.95,9.16-16.04
		c0-6.7-2.37-12.15-6.58-15.69c-1.01-0.84-2.12-1.58-3.34-2.19H45z"/>
</g>
<path fill="#653C97" d="M23.531,138.876L23.531,138.876z"/>
<path fill="#653C97" d="M45,76.667v39.34c0,1.55-1.28,2.83-2.83,2.83H2.84c-1.55,0-2.84-1.28-2.84-2.83v-39.34
	c0-1.55,1.29-2.83,2.84-2.83h21.94c1.85,0.32,4.64,1.18,6.3,2c0.13,0.07,0.25,0.13,0.36,0.19c5.35,2.89,8.4,8.53,8.4,15.87
	c0,8.38-4.4,13.4-8.29,14.01c-0.27,0.03-0.54,0.05-0.8,0.05c-0.53,0-1-0.05-1.44-0.16c-2.72-0.67-3.59-3.43-2.34-8.39l2.29-11.96
	h-2.15l-0.58,2.53H26.4c-1.03-1.65-2.36-2.63-4.06-2.93c-0.38-0.07-0.79-0.11-1.22-0.11c-0.69,0-1.35,0.07-1.98,0.21
	c-6.23,1.3-9.78,8.46-9.78,14.04c0,4.98,2.53,7.84,5.79,8.47c0.46,0.09,0.92,0.13,1.41,0.13c0.36,0,0.72-0.03,1.07-0.08
	c0.19-0.03,0.36-0.06,0.54-0.11c0,0,0.01,0,0.02,0c2.27-0.55,4.33-2.22,6.13-4.23h0.13c0.25,2.67,1.93,4.17,4.32,4.64
	c0.55,0.11,1.16,0.17,1.78,0.17c0.5,0,1-0.06,1.51-0.16c0.34-0.05,0.68-0.14,1.02-0.26c4.6-1.47,9.16-6.95,9.16-16.04
	c0-6.7-2.37-12.15-6.58-15.69c-0.08-0.07-0.16-0.13-0.24-0.19c-0.95-0.77-1.98-1.44-3.1-2h9.85C43.72,73.837,45,75.117,45,76.667z"
	/>
<path fill="#653C97" d="M25.49,90.851l-1.79,9.98c-2.04,2.35-3.89,3.56-5.56,3.81c-0.23,0.04-0.47,0.06-0.7,0.06
	c-0.31,0-0.61-0.02-0.91-0.08c-2.13-0.35-3.68-2.03-3.68-5.87c0-4.38,2.6-9.62,6.94-10.58c0.44-0.1,0.91-0.15,1.4-0.15
	c0.43,0,0.83,0.04,1.21,0.14c0.09,0.03,0.18,0.05,0.27,0.09C23.68,88.591,24.53,89.381,25.49,90.851z"/>
<path fill="#653C97" d="M23.531,72.876L23.531,72.876z"/>
<g>
</g>
<g>
</g>
<g>
</g>
<g>
</g>
<g>
</g>
<g>
</g>
</svg>
