<?xml version="1.0" encoding="utf-8"?>
<!-- Generator: Adobe Illustrator 17.0.0, SVG Export Plug-In . SVG Version: 6.00 Build 0)  -->
<!DOCTYPE svg PUBLIC "-//W3C//DTD SVG 1.1//EN" "http://www.w3.org/Graphics/SVG/1.1/DTD/svg11.dtd">
<svg version="1.1" id="Layer_1" xmlns="http://www.w3.org/2000/svg" xmlns:xlink="http://www.w3.org/1999/xlink" x="0px" y="0px"
	 width="45px" height="45px" viewBox="0 0 45 45" enable-background="new 0 0 45 45" xml:space="preserve">
<path fill="#653C97" d="M42.16,0H2.84C1.28,0,0,1.28,0,2.83v39.34C0,43.72,1.28,45,2.84,45h39.32c1.56,0,2.84-1.28,2.84-2.83V2.83
	C45,1.28,43.72,0,42.16,0z M42.99,40.17c0,0.29-0.04,0.57-0.13,0.83c-0.36,1.16-1.44,2-2.7,2H4.84C3.29,43,2,41.72,2,40.17V4.83
	C2,4.54,2.05,4.26,2.13,4C2.41,3.11,3.11,2.41,4,2.14C4.27,2.04,4.55,2,4.84,2h15.4c0.6,0.01,1.24,0.02,1.92,0.02
	c1.25,0,2.43,0.1,3.56,0.3C27.53,2.63,29.18,3.2,30.64,4c4.87,2.63,7.65,7.77,7.65,14.46c0,7.63-4.01,12.21-7.55,12.76
	c-0.25,0.03-0.49,0.05-0.73,0.05c-0.48,0-0.91-0.05-1.31-0.15c-2.48-0.61-3.27-3.12-2.13-7.64l2.08-10.9h-1.96l-0.52,2.31h-0.12
	c-0.94-1.51-2.15-2.4-3.7-2.67c-0.35-0.07-0.72-0.1-1.11-0.1c-0.63,0-1.23,0.06-1.81,0.19c-5.67,1.18-8.9,7.71-8.9,12.79
	c0,4.54,2.3,7.14,5.27,7.72c0.42,0.08,0.84,0.12,1.28,0.12c0.33,0,0.66-0.03,0.98-0.08c0.17-0.02,0.33-0.05,0.49-0.1
	c0,0,0.01,0,0.02,0c2.07-0.5,3.94-2.02,5.58-3.85h0.12c0.23,2.43,1.76,3.8,3.94,4.23c0.5,0.1,1.05,0.15,1.62,0.15
	c0.45,0,0.91-0.05,1.37-0.14c0.31-0.05,0.62-0.13,0.93-0.24c4.19-1.34,8.35-6.33,8.35-14.62c0-6.1-2.16-11.07-6-14.29
	c-0.92-0.77-1.93-1.44-3.04-2h8.72c0.29,0,0.57,0.04,0.83,0.13c1.16,0.36,2,1.44,2,2.7V40.17z M25.48,17.02L23.69,27
	c-2.04,2.35-3.89,3.56-5.56,3.81c-0.23,0.04-0.47,0.06-0.7,0.06c-0.31,0-0.61-0.02-0.91-0.08c-2.13-0.35-3.68-2.03-3.68-5.87
	c0-4.38,2.6-9.62,6.94-10.58c0.44-0.1,0.91-0.15,1.4-0.15c0.43,0,0.83,0.04,1.21,0.14c0.09,0.03,0.18,0.05,0.27,0.09
	C23.67,14.76,24.52,15.55,25.48,17.02z"/>
</svg>
