<?xml version="1.0" encoding="utf-8"?>
<!-- Generator: Adobe Illustrator 17.0.0, SVG Export Plug-In . SVG Version: 6.00 Build 0)  -->
<!DOCTYPE svg PUBLIC "-//W3C//DTD SVG 1.1//EN" "http://www.w3.org/Graphics/SVG/1.1/DTD/svg11.dtd">
<svg version="1.1" id="Layer_1" xmlns="http://www.w3.org/2000/svg" xmlns:xlink="http://www.w3.org/1999/xlink" x="0px" y="0px"
	 width="45px" height="45px" viewBox="0 0 45 45" enable-background="new 0 0 45 45" xml:space="preserve">
<path fill="#653C97" d="M42.165,0H2.835c-1.55,0-2.84,1.28-2.84,2.83v39.34c0,1.55,1.29,2.83,2.84,2.83h39.33
	c1.55,0,2.83-1.28,2.83-2.83V2.83C44.995,1.28,43.715,0,42.165,0z M42.995,42.17c0,0.45-0.38,0.83-0.83,0.83H2.835
	c-0.45,0-0.84-0.38-0.84-0.83V2.83c0-0.45,0.39-0.83,0.84-0.83h39.33c0.45,0,0.83,0.38,0.83,0.83V42.17z"/>
<path fill="#653C97" d="M31.455,2c-2.57-1.3-5.63-2-9.09-2c-11.39,0-10.85,1.77-2.08,2c0.6,0.01,1.24,0.02,1.92,0.02
	c9.97,0,16.09,6.52,16.09,16.44c0,8.14-4.56,12.81-8.25,12.81c-3.51,0-4.78-2.54-3.46-7.79l2.07-10.9h-1.95l-0.53,2.31h-0.12
	c-1.15-1.85-2.71-2.77-4.77-2.77c-6.82,0-10.75,7.38-10.75,12.98c0,5.19,3.01,7.84,6.58,7.84c2.67,0,5.03-1.78,7.04-4.03h0.13
	c0.29,3,2.54,4.38,5.58,4.38c4.79,0,10.62-5.19,10.62-15C40.485,10.73,37.165,4.9,31.455,2z M23.705,27
	c-2.31,2.66-4.38,3.87-6.24,3.87c-2.6,0-4.62-1.56-4.62-5.95c0-4.84,3.19-10.73,8.37-10.73c1.74,0,2.88,0.7,4.27,2.83L23.705,27z"/>
</svg>
