<?xml version="1.0" encoding="utf-8"?>
<!-- Generator: Adobe Illustrator 17.1.0, SVG Export Plug-In . SVG Version: 6.00 Build 0)  -->
<!DOCTYPE svg PUBLIC "-//W3C//DTD SVG 1.1//EN" "http://www.w3.org/Graphics/SVG/1.1/DTD/svg11.dtd">
<svg version="1.1" id="Layer_1" xmlns="http://www.w3.org/2000/svg" xmlns:xlink="http://www.w3.org/1999/xlink" x="0px" y="0px"
	 viewBox="0 0 77.7 77.8" enable-background="new 0 0 77.7 77.8" xml:space="preserve">
<linearGradient id="SVGID_1_" gradientUnits="userSpaceOnUse" x1="38.8594" y1="78.6826" x2="38.8594" y2="1.0052" gradientTransform="matrix(1 0 0 -1 0 79)">
	<stop  offset="0" style="stop-color:#FF5995"/>
	<stop  offset="1" style="stop-color:#F2558E"/>
</linearGradient>
<path fill="url(#SVGID_1_)" d="M37.3,0c37.6,0,40.5,3.4,40.5,40.5s-1.2,37.3-37.3,37.3S0,77.5,0,37.3S-0.3,0,37.3,0z"/>
<g>
	<path fill="#FFFFFF" d="M20.2,27l-0.8,0.2c-0.2,0-0.2,0.1-0.3,0.1c-0.1,0-0.1,0.1-0.2,0.1c-0.1,0-0.3,0.1-0.5,0.3
		c-0.2,0.1-0.3,0.2-0.5,0.4c-0.7,0.5-1.2,1.2-1.7,2c-1,1.6-1.5,3.5-1.5,5.3c0,0.9,0.1,1.8,0.4,2.7c0.3,0.8,0.7,1.6,1.4,2.3
		c1.2,1.4,3,2.2,5,2.6c2,0.4,4.1,0.5,6.2,0.2c1.1,0,2.1-0.3,3.2-0.4c1.1-0.2,2.1-0.4,3.2-0.7c1-0.3,2.1-0.6,3.1-0.9
		c1-0.4,2.1-0.7,3.1-1.1l3.1-1.2l3-1.3c2-0.9,4.1-1.8,6.2-2.6c2.1-0.8,4.2-1.5,6.6-1.9c1.2-0.2,2.4-0.3,3.7,0c0.7,0.2,1.4,0.5,1.9,1
		c0.6,0.5,0.9,1.2,1.1,1.9c0.4,1.4,0.2,2.6,0,3.8c-0.2,1.2-0.5,2.3-0.8,3.4c-1.4,4.3-3.2,8.4-4.8,12.5c-0.8,2-1.5,4.1-2.2,6.1
		c-0.6,2-1.1,4.1-1.1,6l0,0l0,0.1c-0.2,1.3-1.3,2.2-2.6,2c-1-0.1-1.7-0.8-2-1.7L38.9,12.3l4.4,0.2c-3.1,9.2-6.1,18.4-8.9,27.6
		c-1.4,4.6-2.8,9.2-4.1,13.9c-0.3,1.2-0.7,2.3-1,3.5c-0.3,1.2-0.6,2.3-0.9,3.5c-0.3,1.1-0.6,2.3-0.8,3.4l-0.3,1.7
		c0,0.5-0.1,1-0.2,1.4L27,68c-0.2,1.2-1.3,2.1-2.5,2c-1.2-0.2-2.1-1.3-2-2.5l0.2-2.2l0.4-1.9c0.2-1.3,0.6-2.4,0.8-3.6
		c0.3-1.2,0.6-2.4,0.9-3.6c0.3-1.2,0.7-2.4,1-3.5c1.3-4.7,2.7-9.3,4.2-14c2.9-9.3,5.9-18.5,9-27.7c0.4-1.2,1.7-1.9,2.9-1.5
		c0.8,0.3,1.3,0.9,1.5,1.6l0,0L56.9,67l-4.5,0.3l0,0c0.4-2.5,1.3-4.7,2.2-6.8c0.9-2.1,1.9-4.1,2.8-6.1c1-2,2-4,2.9-6
		c0.9-2,1.8-4,2.5-6c0.4-1,0.7-2,0.9-3c0.2-1,0.3-2,0.1-2.8c-0.2-0.8-0.6-1.2-1.5-1.4c-0.8-0.2-1.9-0.2-2.9,0c-2,0.3-4.1,1-6.1,1.8
		c-2,0.8-4,1.7-6,2.6L44.2,41l-3.1,1.3c-1,0.4-2.1,0.8-3.2,1.2c-1.1,0.4-2.1,0.7-3.2,1c-1.1,0.3-2.2,0.6-3.3,0.8
		c-1.1,0.2-2.2,0.5-3.4,0.6c-2.3,0.3-4.6,0.4-7,0c-2.3-0.4-4.8-1.3-6.7-3.2c-1-0.9-1.7-2.1-2.2-3.2c-0.5-1.2-0.8-2.5-0.9-3.8
		c-0.1-2.6,0.4-5.1,1.6-7.4c0.6-1.1,1.3-2.2,2.3-3.2c0.2-0.3,0.5-0.5,0.8-0.7c0.3-0.2,0.5-0.4,0.9-0.7l0.5-0.3
		c0.2-0.1,0.4-0.2,0.5-0.2l0.8-0.3c1.2-0.5,2.5,0.1,3,1.2s-0.1,2.5-1.2,3C20.4,27,20.3,27,20.2,27L20.2,27z"/>
</g>
</svg>
